<?xml version="1.0" encoding="UTF-8" standalone="no"?>
<svg
   xmlns:dc="http://purl.org/dc/elements/1.1/"
   xmlns:cc="http://creativecommons.org/ns#"
   xmlns:rdf="http://www.w3.org/1999/02/22-rdf-syntax-ns#"
   xmlns:svg="http://www.w3.org/2000/svg"
   xmlns="http://www.w3.org/2000/svg"
   xmlns:sodipodi="http://sodipodi.sourceforge.net/DTD/sodipodi-0.dtd"
   xmlns:inkscape="http://www.inkscape.org/namespaces/inkscape"
   sodipodi:docname="dnfdragora.svg"
   inkscape:version="0.91 r13725"
   version="1.1"
   id="svg4136"
   width="16"
   viewBox="0 0 16 16"
   height="16"
   inkscape:export-filename="F:\dev\dnfdragora\share\images\256x256\dnfdragora.png"
   inkscape:export-xdpi="1440"
   inkscape:export-ydpi="1440"
   shape-rendering="crispEdges">
  <sodipodi:namedview
     inkscape:current-layer="svg4136"
     inkscape:window-maximized="1"
     inkscape:window-y="-8"
     inkscape:window-x="-8"
     inkscape:cy="4.3971091"
     inkscape:cx="7.1888071"
     inkscape:zoom="57.926188"
     inkscape:snap-bbox="true"
     inkscape:snap-grids="true"
     showgrid="false"
     id="namedview4152"
     inkscape:window-height="1137"
     inkscape:window-width="1920"
     inkscape:pageshadow="2"
     inkscape:pageopacity="0"
     guidetolerance="10"
     gridtolerance="10"
     objecttolerance="10"
     borderopacity="1"
     bordercolor="#666666"
     pagecolor="#ffffff"
     units="px" />
  <metadata
     id="metadata4156">
    <rdf:RDF>
      <cc:Work
         rdf:about="">
        <dc:format>image/svg+xml</dc:format>
        <dc:type
           rdf:resource="http://purl.org/dc/dcmitype/StillImage" />
        <dc:title></dc:title>
      </cc:Work>
    </rdf:RDF>
  </metadata>
  <defs
     id="defs4154" />
  <path
     d="m 0.43714671,16.883286 c -0.001272,0 -0.002302,0.001 -0.002302,0.0025 0,0.0012 0.00103,0.0025 0.002302,0.0025 0.001272,0 0.002302,-0.001 0.002302,-0.0025 0,-0.0012 -0.00103,-0.0025 -0.002302,-0.0025 z"
     id="path4138"
     inkscape:export-xdpi="839"
     inkscape:export-ydpi="839"
     style="opacity:1;fill:none;stroke:none;stroke-opacity:1"
     inkscape:connector-curvature="0" />
  <path
     d="m 1.2034669,4.1683334 6.8466,-3.97792673 6.8465991,3.97792673 -0.0039,0.5253917 L 8.0500575,8.6742513 1.2061957,4.6999255 1.2034545,4.1683334 Z"
     id="path4140"
     inkscape:export-xdpi="72.573555"
     inkscape:export-ydpi="72.573555"
     inkscape:connector-curvature="0"
     style="fill:#efc75e" />
  <path
     d="M 3.8031742,2.6680518 11.281235,7.013809 12.629786,6.0878618 5.276727,1.8142735 Z"
     id="path4148"
     inkscape:export-xdpi="72.573555"
     inkscape:export-ydpi="72.573555"
     inkscape:connector-curvature="0"
     style="fill:#f7e3af" />
  <g
     id="g6718"
     transform="matrix(0.02097612,0,0,0.02145153,0.26266261,3.6348367)"
     inkscape:export-xdpi="72.573555"
     inkscape:export-ydpi="72.573555">
    <path
       style="fill:#dbe5a2"
       d="m 369.25645,575.61495 c -0.825,0.17666 -61.125,-32.71732 -134,-73.09773 C 162.38145,462.1368 89.481449,421.73603 73.256449,412.73773 l -29.5,-16.36055 0.01176,-98.86038 c 0.0065,-54.37321 0.118965,-135.18376 0.25,-179.579 0.225512,-76.405059 0.331763,-80.683166 1.988244,-80.055302 0.9625,0.36482 12.55,6.582205 25.75,13.816409 13.2,7.234205 45.599997,25.083266 71.999997,39.664581 26.4,14.581312 66.45,36.646092 89,49.032842 22.55,12.38674 62.74087,34.49782 89.31304,49.13572 l 48.31303,26.61437 5.18697,-2.8445 c 2.85283,-1.56448 8.33696,-4.55716 12.18696,-6.65041 3.85,-2.09325 11.3875,-6.21097 16.75,-9.1505 5.3625,-2.93952 14.25,-7.81959 19.75,-10.84459 5.5,-3.025 14.5,-7.975 20,-11 5.5,-3.025 14.6125,-8.02487 20.25,-11.11082 5.6375,-3.08596 12.275,-6.76942 14.75,-8.18546 2.475,-1.41605 6.3,-3.77899 8.5,-5.25098 2.2,-1.47199 22.41744,-12.89955 44.92763,-25.39457 22.5102,-12.49502 45.4602,-24.9901 51,-27.766842 5.53981,-2.77675 15.53853,-8.14074 22.21939,-11.91998 6.68087,-3.779242 12.50174,-6.87135 12.93527,-6.87135 0.43353,0 5.20487,-2.475 10.60297,-5.5 5.39811,-3.025 14.20224,-7.913154 19.56474,-10.862565 5.3625,-2.94941 17.625,-9.627803 27.25,-14.840872 9.625,-5.21307 18.28873,-9.761263 19.25272,-10.107096 1.66673,-0.597936 1.74033,8.182335 1.5,178.949905 l -0.25272,179.57869 -33.02932,18.14097 c -18.16613,9.97753 -36.61613,20.44014 -41,23.25024 -4.38388,2.81011 -9.51939,5.90374 -11.41226,6.87475 -1.89287,0.97102 -4.59287,2.1037 -6,2.51708 -1.40713,0.41339 -54.75842,29.41315 -118.55842,64.44392 -63.8,35.03077 -116.675,63.83685 -117.5,64.01351 z"
       id="path6732"
       inkscape:connector-curvature="0" />
    <path
       style="fill:#eab543"
       d="m 368.69586,575.80329 c -0.58332,0.0109 -73.93332,-40.35497 -163,-89.7019 L 43.756449,396.37969 43.5253,337.01806 c -0.127131,-32.6489 0.09787,-113.45361 0.5,-179.56603 l 0.731149,-120.204388 18.5,10.029213 c 10.175,5.516067 29.975,16.357483 44.000001,24.092037 14.025,7.734553 34.275,18.900646 45,24.813546 10.725,5.912892 32.775,18.064432 49,27.003412 16.225,8.93899 38.05,20.99225 48.5,26.78502 10.45,5.79278 25.75,14.20633 34,18.69679 8.25,4.49046 26.025,14.2532 39.5,21.69498 13.475,7.44177 29.59278,16.35558 35.81728,19.80847 l 11.31728,6.27797 3.68272,-2.03475 c 2.0255,-1.11912 28.43272,-15.62775 58.68272,-32.24141 30.25,-16.61366 57.32821,-31.74016 60.17379,-33.61445 2.84559,-1.87428 7.28478,-4.31267 9.86488,-5.41863 2.58009,-1.10595 5.87689,-2.84235 7.3262,-3.85866 1.44932,-1.0163 15.91013,-9.24602 32.13513,-18.28825 16.225,-9.04224 31.525,-17.31609 34,-18.38634 2.475,-1.07026 14.625,-7.515652 27,-14.323102 12.375,-6.807448 34.425,-18.923378 49,-26.924288 14.575,-8.00091 30.66373,-16.75491 35.75273,-19.453335 l 9.25273,-4.906225 -0.25273,179.68983 -0.25273,179.68982 -163.5,89.7021 c -89.925,49.33616 -163.97726,89.71102 -164.56059,89.7219 z M 137.50645,390.92727 c 1.2375,-0.80254 23.625,-14.26341 49.75,-29.91305 26.125,-15.64964 50.11927,-30.00727 53.32061,-31.90585 3.20134,-1.89857 8.15134,-4.85569 11,-6.57138 2.84866,-1.71569 11.25439,-6.77519 18.67939,-11.24335 7.425,-4.46816 14.03131,-8.12691 14.68069,-8.13057 0.64937,-0.004 16.53029,8.56243 35.29092,19.03575 l 34.11023,19.04241 8.38588,-5.06531 8.38588,-5.06531 7.52572,4.56897 7.52571,4.56897 34.1168,-19.04606 c 18.76424,-10.47534 34.64811,-19.04308 35.29748,-19.03942 0.64938,0.004 7.25569,3.66241 14.68069,8.13057 7.425,4.46816 15.85954,9.52766 18.74342,11.24335 2.88388,1.71569 13.68388,8.1613 24,14.32358 10.31612,6.16229 35.18158,21.07968 55.25658,33.14976 20.075,12.07009 36.56991,21.87822 36.65536,21.79585 0.0855,-0.0824 0.4103,-5.09976 0.7219,-11.14976 0.3116,-6.05 0.85984,-39.59553 1.2183,-74.54562 l 0.65176,-63.54561 -20.73597,-12.35365 c -20.31113,-12.10055 -20.79001,-12.32219 -23.37366,-10.81821 -1.45073,0.8445 -43.58769,24.34375 -93.63769,52.22056 -50.05,27.87682 -93.04699,51.92819 -95.54887,53.44749 l -4.54886,2.76237 -97.3973,-54.33367 c -53.56851,-29.88351 -97.59623,-54.33366 -97.83937,-54.33366 -0.24314,0 -9.65909,5.49113 -20.92435,12.20251 l -20.48228,12.20251 0.72678,65.04749 c 0.39973,35.77612 0.8161,66.62249 0.92527,68.54749 0.10917,1.925 0.28635,6.36425 0.39374,9.86501 0.19481,6.35106 0.20017,6.36181 2.44524,4.90584 z"
       id="path6730"
       inkscape:connector-curvature="0" />
    <path
       style="fill:#6695b6"
       d="m 368.69201,575.80329 c -0.58544,0.0109 -73.93544,-40.35735 -163,-89.70719 l -161.935561,-89.72698 -0.25519,-92.00827 -0.25519,-92.00827 8.050345,-4.71959 c 4.42769,-2.59578 8.367526,-4.40263 8.75519,-4.01523 0.387665,0.38741 0.861338,17.9513 1.052608,39.03089 l 0.347763,38.32652 21.981275,12.21184 c 12.089701,6.71651 24.08321,13.32478 26.65224,14.68503 2.56903,1.36026 8.27096,4.43335 12.67096,6.8291 4.4,2.39575 8.78216,4.94077 9.73814,5.6556 1.59135,1.18993 1.74315,4.27641 1.79752,36.54968 0.0327,19.3875 0.28201,35.25 0.55409,35.25 0.27208,0 22.8632,-13.40976 50.20247,-29.79947 27.33928,-16.38971 52.32705,-31.35221 55.52839,-33.25 3.20134,-1.89779 8.15134,-4.85427 11,-6.56996 2.84866,-1.71569 11.25439,-6.77519 18.67939,-11.24335 7.425,-4.46816 14.02596,-8.12691 14.6688,-8.13057 0.64283,-0.004 14.59283,7.48687 31,16.64562 16.40716,9.15874 35.13034,19.51822 41.60707,23.02105 l 11.77587,6.36879 9.72413,-5.22093 c 5.34827,-2.87151 24.49287,-13.45598 42.54356,-23.52105 18.05069,-10.06507 33.35069,-18.29714 34,-18.29348 0.64931,0.004 7.25557,3.66241 14.68057,8.13057 7.425,4.46816 15.83073,9.52766 18.67939,11.24335 2.84866,1.71569 7.79866,4.67217 11,6.56996 3.20134,1.89779 28.18911,16.86029 55.52839,33.25 27.33927,16.38971 49.93039,29.79947 50.20247,29.79947 0.27208,0 0.52142,-15.8625 0.55409,-35.25 0.0544,-32.27327 0.20617,-35.35975 1.79752,-36.54968 0.95598,-0.71483 5.33814,-3.25985 9.73814,-5.6556 4.4,-2.39575 10.10193,-5.46884 12.67096,-6.8291 2.56903,-1.36025 14.56254,-7.96852 26.65224,-14.68503 l 21.98127,-12.21184 0.34777,-38.32652 c 0.19127,-21.07959 0.66494,-38.64348 1.0526,-39.03089 0.38767,-0.3874 4.32749,1.41945 8.75517,4.01521 l 8.05032,4.71958 -0.25517,92.51341 -0.25516,92.51341 -163.5,89.70206 c -89.925,49.33614 -163.979,89.71098 -164.56444,89.72186 z M 132.49412,242.14156 c -0.40572,-0.008 -14.46267,-7.68575 -31.23767,-17.06128 -16.775001,-9.37553 -33.200001,-18.52556 -36.500001,-20.3334 -3.3,-1.80784 -9.075481,-4.99244 -12.834403,-7.07689 -3.758922,-2.08444 -7.025236,-4.29022 -7.258477,-4.90173 -0.233241,-0.61151 -0.30776,-35.85449 -0.165597,-78.31772 l 0.258477,-77.205878 16,8.753326 c 8.8,4.814329 30.175,16.565122 47.500001,26.112873 17.325,9.547751 39.825,21.952987 50,27.567187 10.175,5.614212 29.975,16.527762 44,24.252342 14.025,7.72458 34.85612,19.2039 46.29138,25.50959 l 20.79137,11.46491 -46.87315,28.12576 c -25.78024,15.46918 -47.44388,28.12577 -48.14141,28.12577 -0.69754,0 -9.66074,-4.69733 -19.91822,-10.43852 -10.25748,-5.74118 -19.50603,-10.76564 -20.55232,-11.16545 -1.84761,-0.70601 -1.88394,-0.0458 -1.26234,22.93852 0.35202,13.016 0.30808,23.65876 -0.0976,23.65059 z m 476.41326,-1.40468 c -1.49186,0.57248 -1.57671,-1.41284 -0.98904,-23.14258 0.62437,-23.08654 0.58822,-23.74792 -1.25954,-23.04185 -1.04629,0.39981 -10.29484,5.42427 -20.55232,11.16545 -10.25748,5.74119 -19.21972,10.43852 -19.91609,10.43852 -0.69637,0 -22.06753,-12.47992 -47.49146,-27.73316 l -46.22533,-27.73316 15.47138,-8.76583 c 11.08551,-6.28086 16.09862,-8.60839 17.684,-8.21049 1.60421,0.40263 4.67571,-1.0843 11.17005,-5.40748 4.92658,-3.27955 16.60742,-10.44852 25.95742,-15.93105 9.35,-5.48253 18.97592,-10.96612 21.39093,-12.18575 2.41501,-1.21964 4.89001,-2.64896 5.5,-3.17627 0.60999,-0.52732 8.30907,-4.8015 17.10907,-9.498192 8.8,-4.69668 21.4,-11.58528 28,-15.307979 6.6,-3.722703 17.4,-9.713054 24,-13.31189 6.6,-3.598836 21.45,-11.700581 33,-18.003879 11.55,-6.303298 22.0125,-11.988099 23.25,-12.632891 l 2.25,-1.172349 0,77.34042 0,77.34042 -7.75,4.3443 c -4.2625,2.38936 -9.775,5.46475 -12.25,6.83418 -2.475,1.36944 -18.49888,10.29186 -35.60861,19.8276 -17.10974,9.53574 -31.84295,17.6195 -32.74046,17.96391 z"
       id="path6728"
       inkscape:connector-curvature="0" />
    <path
       style="fill:#e88729"
       d="m 368.88192,575.73913 c -0.61901,0.0899 -19.90343,-10.24196 -42.85427,-22.95964 -36.74994,-20.36415 -41.52253,-23.28014 -40,-24.43948 0.95084,-0.72403 9.97494,-6.23653 20.05355,-12.25 10.07862,-6.01347 18.68589,-10.93359 19.12727,-10.93359 0.44139,0 6.43904,3.14735 13.32813,6.99412 6.88908,3.84676 13.2932,7.28866 14.23137,7.64867 1.5886,0.60961 1.66573,-1.02128 1.12291,-23.74411 -0.32057,-13.41927 -0.88199,-53.47098 -1.2476,-89.00378 -0.50146,-48.73612 -0.37838,-64.78209 0.5011,-65.32563 0.64121,-0.3963 4.53965,1.13112 8.66319,3.39425 l 7.49736,4.11479 8.45688,-4.60984 c 4.65128,-2.53542 8.9779,-4.28783 9.61471,-3.89426 0.86895,0.53704 0.99198,16.83556 0.4931,65.32069 -0.36561,35.5328 -0.92703,75.58451 -1.2476,89.00378 -0.54282,22.72283 -0.46569,24.35372 1.12291,23.74411 0.93817,-0.36001 7.34229,-3.80191 14.23137,-7.64867 6.88909,-3.84677 12.89514,-6.99412 13.34678,-6.99412 0.45165,0 9.62142,5.2569 20.37727,11.68201 10.75586,6.4251 19.5561,11.9812 19.5561,12.34688 0,0.36569 -19.18104,11.17812 -42.62453,24.02764 -23.44349,12.84951 -43.13099,23.43629 -43.75,23.52618 z M 135.09269,447.07957 c -0.18493,-0.0423 -20.81124,-11.47193 -45.836241,-25.39925 l -45.5,-25.32241 -0.25519,-92.00266 -0.25519,-92.00267 8.050345,-4.71959 c 4.42769,-2.59578 8.367526,-4.40263 8.75519,-4.01523 0.387665,0.38741 0.861338,17.9513 1.052608,39.03089 l 0.347763,38.32652 21.981275,12.21184 c 12.089701,6.71651 24.08321,13.32478 26.65224,14.68503 2.56903,1.36026 8.27096,4.43335 12.67096,6.8291 4.4,2.39575 8.73991,4.94077 9.64425,5.6556 1.48085,1.17051 1.71303,7.53602 2.33624,64.04968 0.38059,34.5125 0.54068,62.71542 0.35575,62.67315 z m 470.44228,-0.92315 c -0.24805,0 -0.1396,-28.2375 0.24099,-62.75 0.62321,-56.51366 0.85539,-62.87917 2.33624,-64.04968 0.90434,-0.71483 5.24425,-3.25985 9.64425,-5.6556 4.4,-2.39575 10.10193,-5.46884 12.67096,-6.8291 2.56903,-1.36025 14.56254,-7.96852 26.65224,-14.68503 l 21.98127,-12.21184 0.34777,-38.32652 c 0.19127,-21.07959 0.66494,-38.64348 1.0526,-39.03089 0.38767,-0.3874 4.32749,1.41945 8.75517,4.01521 l 8.05032,4.71958 -0.25517,92.51476 -0.25516,92.51476 -45.38524,24.88718 c -24.96189,13.68794 -45.58819,24.88717 -45.83624,24.88717 z M 132.49412,242.14156 c -0.40572,-0.008 -14.46267,-7.68575 -31.23767,-17.06128 -16.775001,-9.37553 -33.200001,-18.52556 -36.500001,-20.3334 -3.3,-1.80784 -9.075481,-4.99244 -12.834403,-7.07689 -3.758922,-2.08444 -7.025236,-4.29022 -7.258477,-4.90173 -0.233241,-0.61151 -0.30776,-35.85449 -0.165597,-78.31772 l 0.258477,-77.205878 16,8.753326 c 8.8,4.814329 30.175,16.565122 47.500001,26.112873 17.325,9.547751 39.825,21.952987 50,27.567187 10.175,5.614212 29.975,16.527762 44,24.252342 14.025,7.72458 34.85612,19.2039 46.29138,25.50959 l 20.79137,11.46491 -46.87315,28.12576 c -25.78024,15.46918 -47.44388,28.12577 -48.14141,28.12577 -0.69754,0 -9.66074,-4.69733 -19.91822,-10.43852 -10.25748,-5.74118 -19.50603,-10.76564 -20.55232,-11.16545 -1.84761,-0.70601 -1.88394,-0.0458 -1.26234,22.93852 0.35202,13.016 0.30808,23.65876 -0.0976,23.65059 z m 476.41326,-1.40468 c -1.49186,0.57248 -1.57671,-1.41284 -0.98904,-23.14258 0.62437,-23.08654 0.58822,-23.74792 -1.25954,-23.04185 -1.04629,0.39981 -10.29484,5.42427 -20.55232,11.16545 -10.25748,5.74119 -19.21972,10.43852 -19.91609,10.43852 -0.69637,0 -22.06753,-12.47992 -47.49146,-27.73316 l -46.22533,-27.73316 15.47138,-8.76583 c 11.08551,-6.28086 16.09862,-8.60839 17.684,-8.21049 1.60421,0.40263 4.67571,-1.0843 11.17005,-5.40748 4.92658,-3.27955 16.60742,-10.44852 25.95742,-15.93105 9.35,-5.48253 18.97592,-10.96612 21.39093,-12.18575 2.41501,-1.21964 4.89001,-2.64896 5.5,-3.17627 0.60999,-0.52732 8.30907,-4.8015 17.10907,-9.498192 8.8,-4.69668 21.4,-11.58528 28,-15.307979 6.6,-3.722703 17.4,-9.713054 24,-13.31189 6.6,-3.598836 21.45,-11.700581 33,-18.003879 11.55,-6.303298 22.0125,-11.988099 23.25,-12.632891 l 2.25,-1.172349 0,77.34042 0,77.34042 -7.75,4.3443 c -4.2625,2.38936 -9.775,5.46475 -12.25,6.83418 -2.475,1.36944 -18.49888,10.29186 -35.60861,19.8276 -17.10974,9.53574 -31.84295,17.6195 -32.74046,17.96391 z"
       id="path6726"
       inkscape:connector-curvature="0" />
    <path
       style="fill:#b3803e"
       d="m 368.88192,575.73913 c -0.61901,0.0899 -19.90343,-10.24196 -42.85427,-22.95964 -36.74994,-20.36415 -41.52253,-23.28014 -40,-24.43948 0.95084,-0.72403 9.97494,-6.23653 20.05355,-12.25 10.07862,-6.01347 18.68589,-10.93359 19.12727,-10.93359 0.44139,0 6.43904,3.14735 13.32813,6.99412 6.88908,3.84676 13.2932,7.28866 14.23137,7.64867 1.5886,0.60961 1.66573,-1.02128 1.12291,-23.74411 -0.32057,-13.41927 -0.88199,-53.47098 -1.2476,-89.00378 -0.50146,-48.73612 -0.37838,-64.78209 0.5011,-65.32563 0.64121,-0.3963 4.53965,1.13112 8.66319,3.39425 l 7.49736,4.11479 8.45688,-4.60984 c 4.65128,-2.53542 8.9779,-4.28783 9.61471,-3.89426 0.86895,0.53704 0.99198,16.83556 0.4931,65.32069 -0.36561,35.5328 -0.92703,75.58451 -1.2476,89.00378 -0.54282,22.72283 -0.46569,24.35372 1.12291,23.74411 0.93817,-0.36001 7.34229,-3.80191 14.23137,-7.64867 6.88909,-3.84677 12.89514,-6.99412 13.34678,-6.99412 0.45165,0 9.62142,5.2569 20.37727,11.68201 10.75586,6.4251 19.5561,11.9812 19.5561,12.34688 0,0.36569 -19.18104,11.17812 -42.62453,24.02764 -23.44349,12.84951 -43.13099,23.43629 -43.75,23.52618 z M 135.09269,447.07957 c -0.18493,-0.0423 -20.81124,-11.47196 -45.836241,-25.39931 l -45.5,-25.32245 0,-91.81249 0,-91.81248 7.848588,-4.85629 c 4.316723,-2.67096 7.979391,-4.71315 8.139261,-4.53821 0.159871,0.17494 0.553241,14.49308 0.874156,31.81808 0.320915,17.325 0.878279,47.025 1.238586,66 0.360308,18.975 0.732473,34.5974 0.827033,34.71644 0.09456,0.11905 7.349529,-4.06902 16.122152,-9.3068 8.772623,-5.23779 16.839258,-10.06019 17.925855,-10.71645 1.086597,-0.65625 4.35783,-2.65569 7.26942,-4.44319 2.91158,-1.7875 5.67968,-3.25 6.15133,-3.25 0.47166,0 5.75042,2.72818 11.73059,6.06262 5.98017,3.33444 11.15834,6.37194 11.50704,6.75 0.34871,0.37806 0.95002,28.92488 1.33624,63.43738 0.38622,34.5125 0.55092,62.71542 0.36599,62.67315 z m 470.44228,-0.92315 c -0.24805,0 -0.13499,-28.2375 0.25123,-62.75 0.38622,-34.5125 0.98753,-63.05932 1.33624,-63.43738 0.3487,-0.37806 5.52687,-3.41556 11.50704,-6.75 5.98017,-3.33444 11.25893,-6.06262 11.73058,-6.06262 0.47166,0 3.23976,1.4625 6.15134,3.25 2.91158,1.7875 6.18282,3.78694 7.26942,4.44319 1.0866,0.65626 9.15323,5.47866 17.92585,10.71645 8.77263,5.23778 16.0276,9.42585 16.12216,9.3068 0.0946,-0.11904 0.46672,-15.74144 0.82703,-34.71644 0.36031,-18.975 0.91767,-48.675 1.23859,-66 0.32091,-17.325 0.71428,-31.64314 0.87415,-31.81808 0.15987,-0.17494 3.82254,1.86725 8.13926,4.53821 l 7.84859,4.85629 0,92.32456 0,92.32457 -45.38524,24.88722 c -24.96189,13.68798 -45.58819,24.88723 -45.83624,24.88723 z M 132.14509,194.11182 c -0.21375,-0.0245 -11.14906,-6.08245 -24.30069,-13.46205 -13.151623,-7.37959 -24.240212,-13.77202 -24.641307,-14.2054 -0.401094,-0.43337 -1.037151,-25.18162 -1.41346,-54.99609 l -0.684197,-54.208151 20.825504,11.51273 c 11.45403,6.332002 22.73801,12.477837 25.07551,13.657411 l 4.25,2.144678 0.0239,24.550742 c 0.0132,13.5029 0.30056,38.16323 0.63865,54.80073 0.33809,16.6375 0.43982,30.22993 0.22606,30.2054 z m 480.32048,-3.20088 -4.29087,2.48344 0.66101,-53.86898 c 0.36356,-29.62794 0.94445,-54.151252 1.29088,-54.496252 0.34642,-0.345 11.39358,-6.532503 24.54924,-13.750003 13.15566,-7.2175 24.09875,-13.122727 24.31799,-13.122727 0.21923,0 0.0954,23.9625 -0.27527,53.250002 -0.47935,37.87925 -1.00412,53.56421 -1.81798,54.33855 -0.62927,0.5987 -9.91912,5.9472 -20.64412,11.88554 -10.725,5.93835 -21.43089,11.91454 -23.79088,13.28043 z"
       id="path6724"
       inkscape:connector-curvature="0" />
    <path
       style="fill:#dd6417"
       d="m 368.88192,575.73913 c -0.61901,0.0899 -19.90343,-10.24196 -42.85427,-22.95964 -36.74994,-20.36415 -41.52253,-23.28014 -40,-24.43948 0.95084,-0.72403 9.97494,-6.23653 20.05355,-12.25 10.07862,-6.01347 18.68589,-10.93359 19.12727,-10.93359 0.44139,0 6.43904,3.14735 13.32813,6.99412 6.88908,3.84676 13.2932,7.28866 14.23137,7.64867 1.5886,0.60961 1.66573,-1.02128 1.12291,-23.74411 -0.32057,-13.41927 -0.88199,-53.47098 -1.2476,-89.00378 -0.45694,-44.40905 -0.33908,-64.80638 0.37702,-65.24895 0.57298,-0.35412 4.51174,1.31404 8.7528,3.70702 l 7.71103,4.35087 8.45765,-4.86675 c 4.65171,-2.67671 8.93801,-4.56988 9.52512,-4.20702 0.74994,0.46348 0.86973,19.87703 0.40272,65.26483 -0.36561,35.5328 -0.92703,75.58451 -1.2476,89.00378 -0.54282,22.72283 -0.46569,24.35372 1.12291,23.74411 0.93817,-0.36001 7.34229,-3.80191 14.23137,-7.64867 6.88909,-3.84677 12.89514,-6.99412 13.34678,-6.99412 0.45165,0 9.62142,5.2569 20.37727,11.68201 10.75586,6.4251 19.5561,11.9812 19.5561,12.34688 0,0.36569 -19.18104,11.17812 -42.62453,24.02764 -23.44349,12.84951 -43.13099,23.43629 -43.75,23.52618 z M 135.00645,447.0856 c -0.1375,-0.0389 -10.86703,-6.00876 -23.8434,-13.26624 L 87.569646,420.62394 109.77241,407.41276 c 12.21151,-7.26614 22.94104,-13.49448 23.8434,-13.84074 1.49599,-0.57407 1.64064,1.76039 1.64064,26.47741 0,14.90885 -0.1125,27.07512 -0.25,27.03617 z m 470.62831,-0.92918 c -0.20807,0 -0.37831,-12.15 -0.37831,-27 0,-14.85 0.33802,-27 0.75116,-27 0.41314,0 11.26159,6.25264 24.10767,13.89475 l 23.3565,13.89475 -4.35767,2.50475 c -2.39671,1.37761 -13.07492,7.27497 -23.72935,13.10525 -10.65443,5.83027 -19.54193,10.6005 -19.75,10.6005 z M 44.084403,346.99211 c -0.463146,0.18463 -0.726405,-29.94823 -0.585019,-66.9619 l 0.257065,-67.29758 7.848588,-4.85618 c 4.316723,-2.67091 7.979391,-4.71305 8.139261,-4.53811 0.159871,0.17494 0.555076,14.49308 0.878233,31.81808 0.323157,17.325 0.862666,47.25 1.198908,66.5 l 0.611349,35 -8.753151,5 c -4.814233,2.75 -9.132088,5.15106 -9.595234,5.33569 z m 652.429087,-0.91519 c -0.41637,-0.0437 -4.72986,-2.40622 -9.58553,-5.25 l -8.82849,-5.1705 0.60167,-35 c 0.33092,-19.25 0.86607,-49.175 1.18923,-66.5 0.32316,-17.325 0.71836,-31.64314 0.87823,-31.81808 0.15987,-0.17494 3.82254,1.8672 8.13926,4.53811 l 7.84859,4.85618 0.25704,67.21189 c 0.14137,36.96655 -0.0836,67.17613 -0.5,67.1324 z m -564.3684,-151.9651 c -0.21375,-0.0245 -11.14906,-6.08245 -24.30069,-13.46205 -13.151623,-7.37959 -24.240212,-13.77202 -24.641307,-14.2054 -0.401094,-0.43337 -1.037151,-25.18162 -1.41346,-54.99609 l -0.684197,-54.208151 20.825504,11.51273 c 11.45403,6.332002 22.73801,12.477837 25.07551,13.657411 l 4.25,2.144678 0.0239,24.550742 c 0.0132,13.5029 0.30056,38.16323 0.63865,54.80073 0.33809,16.6375 0.43982,30.22993 0.22606,30.2054 z m 480.32048,-3.20088 -4.29087,2.48344 0.66101,-53.86898 c 0.36356,-29.62794 0.94445,-54.151252 1.29088,-54.496252 0.34642,-0.345 11.39358,-6.532503 24.54924,-13.750003 13.15566,-7.2175 24.09875,-13.122727 24.31799,-13.122727 0.21923,0 0.0954,23.9625 -0.27527,53.250002 -0.47935,37.87925 -1.00412,53.56421 -1.81798,54.33855 -0.62927,0.5987 -9.91912,5.9472 -20.64412,11.88554 -10.725,5.93835 -21.43089,11.91454 -23.79088,13.28043 z"
       id="path6722"
       inkscape:connector-curvature="0" />
    <path
       style="fill:#665a62"
       d="m 368.88192,575.73913 c -0.61901,0.0899 -19.90343,-10.24196 -42.85427,-22.95964 -36.74994,-20.36415 -41.52253,-23.28014 -40,-24.43948 0.95084,-0.72403 9.97494,-6.23653 20.05355,-12.25 10.07862,-6.01347 18.68589,-10.93359 19.12727,-10.93359 0.44139,0 6.43904,3.14735 13.32813,6.99412 6.88908,3.84676 13.2932,7.28866 14.23137,7.64867 1.5886,0.60961 1.66573,-1.02128 1.12291,-23.74411 -0.32057,-13.41927 -0.88199,-53.47098 -1.2476,-89.00378 -0.45694,-44.40905 -0.33908,-64.80638 0.37702,-65.24895 0.57298,-0.35412 4.51174,1.31404 8.7528,3.70702 l 7.71103,4.35087 8.45765,-4.86675 c 4.65171,-2.67671 8.93801,-4.56988 9.52512,-4.20702 0.74994,0.46348 0.86973,19.87703 0.40272,65.26483 -0.36561,35.5328 -0.92703,75.58451 -1.2476,89.00378 -0.54282,22.72283 -0.46569,24.35372 1.12291,23.74411 0.93817,-0.36001 7.34229,-3.80191 14.23137,-7.64867 6.88909,-3.84677 12.89514,-6.99412 13.34678,-6.99412 0.45165,0 9.62142,5.2569 20.37727,11.68201 10.75586,6.4251 19.5561,11.9812 19.5561,12.34688 0,0.36569 -19.18104,11.17812 -42.62453,24.02764 -23.44349,12.84951 -43.13099,23.43629 -43.75,23.52618 z M 135.00645,447.0856 c -0.1375,-0.0389 -10.86703,-6.00876 -23.8434,-13.26624 L 87.569646,420.62394 109.77241,407.41276 c 12.21151,-7.26614 22.94104,-13.49448 23.8434,-13.84074 1.49599,-0.57407 1.64064,1.76039 1.64064,26.47741 0,14.90885 -0.1125,27.07512 -0.25,27.03617 z m 470.62831,-0.92918 c -0.20807,0 -0.37831,-12.15 -0.37831,-27 0,-14.85 0.33802,-27 0.75116,-27 0.41314,0 11.26159,6.25264 24.10767,13.89475 l 23.3565,13.89475 -4.35767,2.50475 c -2.39671,1.37761 -13.07492,7.27497 -23.72935,13.10525 -10.65443,5.83027 -19.54193,10.6005 -19.75,10.6005 z"
       id="path6720"
       inkscape:connector-curvature="0" />
  </g>
  <path
     d="m 10.786248,6.6875915 0,2.352263 0.655703,0.056396 0.417957,-0.5441169 0.39347,0.068028 0,-2.7350236 z"
     id="path4146"
     inkscape:export-xdpi="72.573555"
     inkscape:export-ydpi="72.573555"
     inkscape:connector-curvature="0"
     style="fill:#f1d999" />
  <rect
     style="opacity:1;fill:none;stroke:none;stroke-width:1.01300001;stroke-miterlimit:4;stroke-dasharray:none;stroke-opacity:1"
     id="rect6790"
     width="3.7089751"
     height="3.8585603"
     x="8.7879257"
     y="9.7960739"
     ry="0.23883989"
     rx="0.22750629"
     inkscape:export-xdpi="72.573555"
     inkscape:export-ydpi="72.573555" />
  <rect
     style="opacity:1;fill:#aa4400;stroke:none;stroke-width:1.01300001;stroke-miterlimit:4;stroke-dasharray:none;stroke-opacity:1"
     id="rect7708"
     width="0.10865998"
     height="2.826483"
     x="8.0282516"
     y="8.2903442"
     inkscape:export-xdpi="72.573555"
     inkscape:export-ydpi="72.573555" />
  <g
     id="g4218"
     transform="translate(0.79411405,1.0703276)">
    <rect
       transform="matrix(0.96528613,-0.26119474,0.26310866,0.96476621,0,0)"
       y="9.2235241"
       x="-0.20926385"
       height="3.419239"
       width="3.6151187"
       id="rect4165"
       style="opacity:1;fill:#fff6d5;fill-opacity:1;stroke:none;stroke-width:1.01300001;stroke-miterlimit:4;stroke-dasharray:none;stroke-opacity:1" />
    <g
       inkscape:transform-center-y="0.34526698"
       inkscape:transform-center-x="0.17176086"
       transform="matrix(0.80731577,-0.22783164,0.18890005,0.97370054,-1.4174882,0.94461142)"
       id="g4210">
      <rect
         style="opacity:1;fill:#000000;fill-opacity:1;stroke:none;stroke-width:1.01300001;stroke-miterlimit:4;stroke-dasharray:none;stroke-opacity:1"
         id="rect4167"
         width="3.1764565"
         height="0.17263368"
         x="3.0383494"
         y="9.4054003" />
      <rect
         style="opacity:1;fill:#000000;fill-opacity:1;stroke:none;stroke-width:1.01300001;stroke-miterlimit:4;stroke-dasharray:none;stroke-opacity:1"
         id="rect4167-5"
         width="3.003823"
         height="0.17263368"
         x="3.0383492"
         y="9.8024578" />
      <rect
         style="opacity:1;fill:#000000;fill-opacity:1;stroke:none;stroke-width:1.01300001;stroke-miterlimit:4;stroke-dasharray:none;stroke-opacity:1"
         id="rect4167-2"
         width="2.762136"
         height="0.17263368"
         x="3.0383494"
         y="10.156356" />
      <rect
         style="opacity:1;fill:#000000;fill-opacity:1;stroke:none;stroke-width:1.01300001;stroke-miterlimit:4;stroke-dasharray:none;stroke-opacity:1"
         id="rect4167-5-3"
         width="2.7966628"
         height="0.17263368"
         x="3.0383492"
         y="10.553413" />
      <rect
         style="opacity:1;fill:#000000;fill-opacity:1;stroke:none;stroke-width:1.01300001;stroke-miterlimit:4;stroke-dasharray:none;stroke-opacity:1"
         id="rect4167-1"
         width="3.1764565"
         height="0.17263368"
         x="3.0038228"
         y="10.881417" />
      <rect
         style="opacity:1;fill:#000000;fill-opacity:1;stroke:none;stroke-width:1.01300001;stroke-miterlimit:4;stroke-dasharray:none;stroke-opacity:1"
         id="rect4167-5-4"
         width="2.9002428"
         height="0.17263368"
         x="3.0038226"
         y="11.278475" />
    </g>
  </g>
</svg>
