<?xml version="1.0" encoding="UTF-8" standalone="no"?>
<svg
   xmlns:dc="http://purl.org/dc/elements/1.1/"
   xmlns:cc="http://creativecommons.org/ns#"
   xmlns:rdf="http://www.w3.org/1999/02/22-rdf-syntax-ns#"
   xmlns:svg="http://www.w3.org/2000/svg"
   xmlns="http://www.w3.org/2000/svg"
   xmlns:sodipodi="http://sodipodi.sourceforge.net/DTD/sodipodi-0.dtd"
   xmlns:inkscape="http://www.inkscape.org/namespaces/inkscape"
   sodipodi:docname="dnfdragora-logo.svg"
   inkscape:version="0.91 r13725"
   version="1.1"
   id="svg4136"
   width="16"
   viewBox="0 0 16 16"
   height="16"
   inkscape:export-filename="F:\dev\dnfdragora\share\images\256x256\dnfdragora-logo.png"
   inkscape:export-xdpi="1440"
   inkscape:export-ydpi="1440"
   shape-rendering="crispEdges">
  <sodipodi:namedview
     inkscape:current-layer="svg4136"
     inkscape:window-maximized="1"
     inkscape:window-y="-8"
     inkscape:window-x="-8"
     inkscape:cy="8.6891373"
     inkscape:cx="1.9925415"
     inkscape:zoom="28.963094"
     inkscape:snap-bbox="true"
     inkscape:snap-grids="true"
     showgrid="false"
     id="namedview4152"
     inkscape:window-height="1137"
     inkscape:window-width="1920"
     inkscape:pageshadow="2"
     inkscape:pageopacity="0"
     guidetolerance="10"
     gridtolerance="10"
     objecttolerance="10"
     borderopacity="1"
     bordercolor="#666666"
     pagecolor="#ffffff"
     units="px" />
  <metadata
     id="metadata4156">
    <rdf:RDF>
      <cc:Work
         rdf:about="">
        <dc:format>image/svg+xml</dc:format>
        <dc:type
           rdf:resource="http://purl.org/dc/dcmitype/StillImage" />
        <dc:title></dc:title>
      </cc:Work>
    </rdf:RDF>
  </metadata>
  <defs
     id="defs4154" />
  <path
     d="m 0.43714671,16.883286 c -0.001272,0 -0.002302,0.001 -0.002302,0.0025 0,0.0012 0.00103,0.0025 0.002302,0.0025 0.001272,0 0.002302,-0.001 0.002302,-0.0025 0,-0.0012 -0.00103,-0.0025 -0.002302,-0.0025 z"
     id="path4138"
     inkscape:export-xdpi="839"
     inkscape:export-ydpi="839"
     style="opacity:1;fill:none;stroke:none;stroke-opacity:1"
     inkscape:connector-curvature="0" />
  <path
     d="m 1.2034669,4.1683334 6.8466,-3.97792673 6.8465991,3.97792673 -0.0039,0.5253917 L 8.0500575,8.6742513 1.2061957,4.6999255 1.2034545,4.1683334 Z"
     id="path4140"
     inkscape:export-xdpi="72.573555"
     inkscape:export-ydpi="72.573555"
     inkscape:connector-curvature="0"
     style="fill:#efc75e" />
  <path
     d="M 3.8031742,2.6680518 11.281235,7.013809 12.629786,6.0878618 5.276727,1.8142735 Z"
     id="path4148"
     inkscape:export-xdpi="72.573555"
     inkscape:export-ydpi="72.573555"
     inkscape:connector-curvature="0"
     style="fill:#f7e3af" />
  <g
     id="g6718"
     transform="matrix(0.02097612,0,0,0.02145153,0.26266261,3.6348367)"
     inkscape:export-xdpi="72.573555"
     inkscape:export-ydpi="72.573555">
    <path
       style="fill:#dbe5a2"
       d="m 369.25645,575.61495 c -0.825,0.17666 -61.125,-32.71732 -134,-73.09773 C 162.38145,462.1368 89.481449,421.73603 73.256449,412.73773 l -29.5,-16.36055 0.01176,-98.86038 c 0.0065,-54.37321 0.118965,-135.18376 0.25,-179.579 0.225512,-76.405059 0.331763,-80.683166 1.988244,-80.055302 0.9625,0.36482 12.55,6.582205 25.75,13.816409 13.2,7.234205 45.599997,25.083266 71.999997,39.664581 26.4,14.581312 66.45,36.646092 89,49.032842 22.55,12.38674 62.74087,34.49782 89.31304,49.13572 l 48.31303,26.61437 5.18697,-2.8445 c 2.85283,-1.56448 8.33696,-4.55716 12.18696,-6.65041 3.85,-2.09325 11.3875,-6.21097 16.75,-9.1505 5.3625,-2.93952 14.25,-7.81959 19.75,-10.84459 5.5,-3.025 14.5,-7.975 20,-11 5.5,-3.025 14.6125,-8.02487 20.25,-11.11082 5.6375,-3.08596 12.275,-6.76942 14.75,-8.18546 2.475,-1.41605 6.3,-3.77899 8.5,-5.25098 2.2,-1.47199 22.41744,-12.89955 44.92763,-25.39457 22.5102,-12.49502 45.4602,-24.9901 51,-27.766842 5.53981,-2.77675 15.53853,-8.14074 22.21939,-11.91998 6.68087,-3.779242 12.50174,-6.87135 12.93527,-6.87135 0.43353,0 5.20487,-2.475 10.60297,-5.5 5.39811,-3.025 14.20224,-7.913154 19.56474,-10.862565 5.3625,-2.94941 17.625,-9.627803 27.25,-14.840872 9.625,-5.21307 18.28873,-9.761263 19.25272,-10.107096 1.66673,-0.597936 1.74033,8.182335 1.5,178.949905 l -0.25272,179.57869 -33.02932,18.14097 c -18.16613,9.97753 -36.61613,20.44014 -41,23.25024 -4.38388,2.81011 -9.51939,5.90374 -11.41226,6.87475 -1.89287,0.97102 -4.59287,2.1037 -6,2.51708 -1.40713,0.41339 -54.75842,29.41315 -118.55842,64.44392 -63.8,35.03077 -116.675,63.83685 -117.5,64.01351 z"
       id="path6732"
       inkscape:connector-curvature="0" />
    <path
       style="fill:#eab543"
       d="m 368.69586,575.80329 c -0.58332,0.0109 -73.93332,-40.35497 -163,-89.7019 L 43.756449,396.37969 43.5253,337.01806 c -0.127131,-32.6489 0.09787,-113.45361 0.5,-179.56603 l 0.731149,-120.204388 18.5,10.029213 c 10.175,5.516067 29.975,16.357483 44.000001,24.092037 14.025,7.734553 34.275,18.900646 45,24.813546 10.725,5.912892 32.775,18.064432 49,27.003412 16.225,8.93899 38.05,20.99225 48.5,26.78502 10.45,5.79278 25.75,14.20633 34,18.69679 8.25,4.49046 26.025,14.2532 39.5,21.69498 13.475,7.44177 29.59278,16.35558 35.81728,19.80847 l 11.31728,6.27797 3.68272,-2.03475 c 2.0255,-1.11912 28.43272,-15.62775 58.68272,-32.24141 30.25,-16.61366 57.32821,-31.74016 60.17379,-33.61445 2.84559,-1.87428 7.28478,-4.31267 9.86488,-5.41863 2.58009,-1.10595 5.87689,-2.84235 7.3262,-3.85866 1.44932,-1.0163 15.91013,-9.24602 32.13513,-18.28825 16.225,-9.04224 31.525,-17.31609 34,-18.38634 2.475,-1.07026 14.625,-7.515652 27,-14.323102 12.375,-6.807448 34.425,-18.923378 49,-26.924288 14.575,-8.00091 30.66373,-16.75491 35.75273,-19.453335 l 9.25273,-4.906225 -0.25273,179.68983 -0.25273,179.68982 -163.5,89.7021 c -89.925,49.33616 -163.97726,89.71102 -164.56059,89.7219 z M 137.50645,390.92727 c 1.2375,-0.80254 23.625,-14.26341 49.75,-29.91305 26.125,-15.64964 50.11927,-30.00727 53.32061,-31.90585 3.20134,-1.89857 8.15134,-4.85569 11,-6.57138 2.84866,-1.71569 11.25439,-6.77519 18.67939,-11.24335 7.425,-4.46816 14.03131,-8.12691 14.68069,-8.13057 0.64937,-0.004 16.53029,8.56243 35.29092,19.03575 l 34.11023,19.04241 8.38588,-5.06531 8.38588,-5.06531 7.52572,4.56897 7.52571,4.56897 34.1168,-19.04606 c 18.76424,-10.47534 34.64811,-19.04308 35.29748,-19.03942 0.64938,0.004 7.25569,3.66241 14.68069,8.13057 7.425,4.46816 15.85954,9.52766 18.74342,11.24335 2.88388,1.71569 13.68388,8.1613 24,14.32358 10.31612,6.16229 35.18158,21.07968 55.25658,33.14976 20.075,12.07009 36.56991,21.87822 36.65536,21.79585 0.0855,-0.0824 0.4103,-5.09976 0.7219,-11.14976 0.3116,-6.05 0.85984,-39.59553 1.2183,-74.54562 l 0.65176,-63.54561 -20.73597,-12.35365 c -20.31113,-12.10055 -20.79001,-12.32219 -23.37366,-10.81821 -1.45073,0.8445 -43.58769,24.34375 -93.63769,52.22056 -50.05,27.87682 -93.04699,51.92819 -95.54887,53.44749 l -4.54886,2.76237 -97.3973,-54.33367 c -53.56851,-29.88351 -97.59623,-54.33366 -97.83937,-54.33366 -0.24314,0 -9.65909,5.49113 -20.92435,12.20251 l -20.48228,12.20251 0.72678,65.04749 c 0.39973,35.77612 0.8161,66.62249 0.92527,68.54749 0.10917,1.925 0.28635,6.36425 0.39374,9.86501 0.19481,6.35106 0.20017,6.36181 2.44524,4.90584 z"
       id="path6730"
       inkscape:connector-curvature="0" />
    <path
       style="fill:#6695b6"
       d="m 368.69201,575.80329 c -0.58544,0.0109 -73.93544,-40.35735 -163,-89.70719 l -161.935561,-89.72698 -0.25519,-92.00827 -0.25519,-92.00827 8.050345,-4.71959 c 4.42769,-2.59578 8.367526,-4.40263 8.75519,-4.01523 0.387665,0.38741 0.861338,17.9513 1.052608,39.03089 l 0.347763,38.32652 21.981275,12.21184 c 12.089701,6.71651 24.08321,13.32478 26.65224,14.68503 2.56903,1.36026 8.27096,4.43335 12.67096,6.8291 4.4,2.39575 8.78216,4.94077 9.73814,5.6556 1.59135,1.18993 1.74315,4.27641 1.79752,36.54968 0.0327,19.3875 0.28201,35.25 0.55409,35.25 0.27208,0 22.8632,-13.40976 50.20247,-29.79947 27.33928,-16.38971 52.32705,-31.35221 55.52839,-33.25 3.20134,-1.89779 8.15134,-4.85427 11,-6.56996 2.84866,-1.71569 11.25439,-6.77519 18.67939,-11.24335 7.425,-4.46816 14.02596,-8.12691 14.6688,-8.13057 0.64283,-0.004 14.59283,7.48687 31,16.64562 16.40716,9.15874 35.13034,19.51822 41.60707,23.02105 l 11.77587,6.36879 9.72413,-5.22093 c 5.34827,-2.87151 24.49287,-13.45598 42.54356,-23.52105 18.05069,-10.06507 33.35069,-18.29714 34,-18.29348 0.64931,0.004 7.25557,3.66241 14.68057,8.13057 7.425,4.46816 15.83073,9.52766 18.67939,11.24335 2.84866,1.71569 7.79866,4.67217 11,6.56996 3.20134,1.89779 28.18911,16.86029 55.52839,33.25 27.33927,16.38971 49.93039,29.79947 50.20247,29.79947 0.27208,0 0.52142,-15.8625 0.55409,-35.25 0.0544,-32.27327 0.20617,-35.35975 1.79752,-36.54968 0.95598,-0.71483 5.33814,-3.25985 9.73814,-5.6556 4.4,-2.39575 10.10193,-5.46884 12.67096,-6.8291 2.56903,-1.36025 14.56254,-7.96852 26.65224,-14.68503 l 21.98127,-12.21184 0.34777,-38.32652 c 0.19127,-21.07959 0.66494,-38.64348 1.0526,-39.03089 0.38767,-0.3874 4.32749,1.41945 8.75517,4.01521 l 8.05032,4.71958 -0.25517,92.51341 -0.25516,92.51341 -163.5,89.70206 c -89.925,49.33614 -163.979,89.71098 -164.56444,89.72186 z M 132.49412,242.14156 c -0.40572,-0.008 -14.46267,-7.68575 -31.23767,-17.06128 -16.775001,-9.37553 -33.200001,-18.52556 -36.500001,-20.3334 -3.3,-1.80784 -9.075481,-4.99244 -12.834403,-7.07689 -3.758922,-2.08444 -7.025236,-4.29022 -7.258477,-4.90173 -0.233241,-0.61151 -0.30776,-35.85449 -0.165597,-78.31772 l 0.258477,-77.205878 16,8.753326 c 8.8,4.814329 30.175,16.565122 47.500001,26.112873 17.325,9.547751 39.825,21.952987 50,27.567187 10.175,5.614212 29.975,16.527762 44,24.252342 14.025,7.72458 34.85612,19.2039 46.29138,25.50959 l 20.79137,11.46491 -46.87315,28.12576 c -25.78024,15.46918 -47.44388,28.12577 -48.14141,28.12577 -0.69754,0 -9.66074,-4.69733 -19.91822,-10.43852 -10.25748,-5.74118 -19.50603,-10.76564 -20.55232,-11.16545 -1.84761,-0.70601 -1.88394,-0.0458 -1.26234,22.93852 0.35202,13.016 0.30808,23.65876 -0.0976,23.65059 z m 476.41326,-1.40468 c -1.49186,0.57248 -1.57671,-1.41284 -0.98904,-23.14258 0.62437,-23.08654 0.58822,-23.74792 -1.25954,-23.04185 -1.04629,0.39981 -10.29484,5.42427 -20.55232,11.16545 -10.25748,5.74119 -19.21972,10.43852 -19.91609,10.43852 -0.69637,0 -22.06753,-12.47992 -47.49146,-27.73316 l -46.22533,-27.73316 15.47138,-8.76583 c 11.08551,-6.28086 16.09862,-8.60839 17.684,-8.21049 1.60421,0.40263 4.67571,-1.0843 11.17005,-5.40748 4.92658,-3.27955 16.60742,-10.44852 25.95742,-15.93105 9.35,-5.48253 18.97592,-10.96612 21.39093,-12.18575 2.41501,-1.21964 4.89001,-2.64896 5.5,-3.17627 0.60999,-0.52732 8.30907,-4.8015 17.10907,-9.498192 8.8,-4.69668 21.4,-11.58528 28,-15.307979 6.6,-3.722703 17.4,-9.713054 24,-13.31189 6.6,-3.598836 21.45,-11.700581 33,-18.003879 11.55,-6.303298 22.0125,-11.988099 23.25,-12.632891 l 2.25,-1.172349 0,77.34042 0,77.34042 -7.75,4.3443 c -4.2625,2.38936 -9.775,5.46475 -12.25,6.83418 -2.475,1.36944 -18.49888,10.29186 -35.60861,19.8276 -17.10974,9.53574 -31.84295,17.6195 -32.74046,17.96391 z"
       id="path6728"
       inkscape:connector-curvature="0" />
    <path
       style="fill:#e88729"
       d="m 368.88192,575.73913 c -0.61901,0.0899 -19.90343,-10.24196 -42.85427,-22.95964 -36.74994,-20.36415 -41.52253,-23.28014 -40,-24.43948 0.95084,-0.72403 9.97494,-6.23653 20.05355,-12.25 10.07862,-6.01347 18.68589,-10.93359 19.12727,-10.93359 0.44139,0 6.43904,3.14735 13.32813,6.99412 6.88908,3.84676 13.2932,7.28866 14.23137,7.64867 1.5886,0.60961 1.66573,-1.02128 1.12291,-23.74411 -0.32057,-13.41927 -0.88199,-53.47098 -1.2476,-89.00378 -0.50146,-48.73612 -0.37838,-64.78209 0.5011,-65.32563 0.64121,-0.3963 4.53965,1.13112 8.66319,3.39425 l 7.49736,4.11479 8.45688,-4.60984 c 4.65128,-2.53542 8.9779,-4.28783 9.61471,-3.89426 0.86895,0.53704 0.99198,16.83556 0.4931,65.32069 -0.36561,35.5328 -0.92703,75.58451 -1.2476,89.00378 -0.54282,22.72283 -0.46569,24.35372 1.12291,23.74411 0.93817,-0.36001 7.34229,-3.80191 14.23137,-7.64867 6.88909,-3.84677 12.89514,-6.99412 13.34678,-6.99412 0.45165,0 9.62142,5.2569 20.37727,11.68201 10.75586,6.4251 19.5561,11.9812 19.5561,12.34688 0,0.36569 -19.18104,11.17812 -42.62453,24.02764 -23.44349,12.84951 -43.13099,23.43629 -43.75,23.52618 z M 135.09269,447.07957 c -0.18493,-0.0423 -20.81124,-11.47193 -45.836241,-25.39925 l -45.5,-25.32241 -0.25519,-92.00266 -0.25519,-92.00267 8.050345,-4.71959 c 4.42769,-2.59578 8.367526,-4.40263 8.75519,-4.01523 0.387665,0.38741 0.861338,17.9513 1.052608,39.03089 l 0.347763,38.32652 21.981275,12.21184 c 12.089701,6.71651 24.08321,13.32478 26.65224,14.68503 2.56903,1.36026 8.27096,4.43335 12.67096,6.8291 4.4,2.39575 8.73991,4.94077 9.64425,5.6556 1.48085,1.17051 1.71303,7.53602 2.33624,64.04968 0.38059,34.5125 0.54068,62.71542 0.35575,62.67315 z m 470.44228,-0.92315 c -0.24805,0 -0.1396,-28.2375 0.24099,-62.75 0.62321,-56.51366 0.85539,-62.87917 2.33624,-64.04968 0.90434,-0.71483 5.24425,-3.25985 9.64425,-5.6556 4.4,-2.39575 10.10193,-5.46884 12.67096,-6.8291 2.56903,-1.36025 14.56254,-7.96852 26.65224,-14.68503 l 21.98127,-12.21184 0.34777,-38.32652 c 0.19127,-21.07959 0.66494,-38.64348 1.0526,-39.03089 0.38767,-0.3874 4.32749,1.41945 8.75517,4.01521 l 8.05032,4.71958 -0.25517,92.51476 -0.25516,92.51476 -45.38524,24.88718 c -24.96189,13.68794 -45.58819,24.88717 -45.83624,24.88717 z M 132.49412,242.14156 c -0.40572,-0.008 -14.46267,-7.68575 -31.23767,-17.06128 -16.775001,-9.37553 -33.200001,-18.52556 -36.500001,-20.3334 -3.3,-1.80784 -9.075481,-4.99244 -12.834403,-7.07689 -3.758922,-2.08444 -7.025236,-4.29022 -7.258477,-4.90173 -0.233241,-0.61151 -0.30776,-35.85449 -0.165597,-78.31772 l 0.258477,-77.205878 16,8.753326 c 8.8,4.814329 30.175,16.565122 47.500001,26.112873 17.325,9.547751 39.825,21.952987 50,27.567187 10.175,5.614212 29.975,16.527762 44,24.252342 14.025,7.72458 34.85612,19.2039 46.29138,25.50959 l 20.79137,11.46491 -46.87315,28.12576 c -25.78024,15.46918 -47.44388,28.12577 -48.14141,28.12577 -0.69754,0 -9.66074,-4.69733 -19.91822,-10.43852 -10.25748,-5.74118 -19.50603,-10.76564 -20.55232,-11.16545 -1.84761,-0.70601 -1.88394,-0.0458 -1.26234,22.93852 0.35202,13.016 0.30808,23.65876 -0.0976,23.65059 z m 476.41326,-1.40468 c -1.49186,0.57248 -1.57671,-1.41284 -0.98904,-23.14258 0.62437,-23.08654 0.58822,-23.74792 -1.25954,-23.04185 -1.04629,0.39981 -10.29484,5.42427 -20.55232,11.16545 -10.25748,5.74119 -19.21972,10.43852 -19.91609,10.43852 -0.69637,0 -22.06753,-12.47992 -47.49146,-27.73316 l -46.22533,-27.73316 15.47138,-8.76583 c 11.08551,-6.28086 16.09862,-8.60839 17.684,-8.21049 1.60421,0.40263 4.67571,-1.0843 11.17005,-5.40748 4.92658,-3.27955 16.60742,-10.44852 25.95742,-15.93105 9.35,-5.48253 18.97592,-10.96612 21.39093,-12.18575 2.41501,-1.21964 4.89001,-2.64896 5.5,-3.17627 0.60999,-0.52732 8.30907,-4.8015 17.10907,-9.498192 8.8,-4.69668 21.4,-11.58528 28,-15.307979 6.6,-3.722703 17.4,-9.713054 24,-13.31189 6.6,-3.598836 21.45,-11.700581 33,-18.003879 11.55,-6.303298 22.0125,-11.988099 23.25,-12.632891 l 2.25,-1.172349 0,77.34042 0,77.34042 -7.75,4.3443 c -4.2625,2.38936 -9.775,5.46475 -12.25,6.83418 -2.475,1.36944 -18.49888,10.29186 -35.60861,19.8276 -17.10974,9.53574 -31.84295,17.6195 -32.74046,17.96391 z"
       id="path6726"
       inkscape:connector-curvature="0" />
    <path
       style="fill:#b3803e"
       d="m 368.88192,575.73913 c -0.61901,0.0899 -19.90343,-10.24196 -42.85427,-22.95964 -36.74994,-20.36415 -41.52253,-23.28014 -40,-24.43948 0.95084,-0.72403 9.97494,-6.23653 20.05355,-12.25 10.07862,-6.01347 18.68589,-10.93359 19.12727,-10.93359 0.44139,0 6.43904,3.14735 13.32813,6.99412 6.88908,3.84676 13.2932,7.28866 14.23137,7.64867 1.5886,0.60961 1.66573,-1.02128 1.12291,-23.74411 -0.32057,-13.41927 -0.88199,-53.47098 -1.2476,-89.00378 -0.50146,-48.73612 -0.37838,-64.78209 0.5011,-65.32563 0.64121,-0.3963 4.53965,1.13112 8.66319,3.39425 l 7.49736,4.11479 8.45688,-4.60984 c 4.65128,-2.53542 8.9779,-4.28783 9.61471,-3.89426 0.86895,0.53704 0.99198,16.83556 0.4931,65.32069 -0.36561,35.5328 -0.92703,75.58451 -1.2476,89.00378 -0.54282,22.72283 -0.46569,24.35372 1.12291,23.74411 0.93817,-0.36001 7.34229,-3.80191 14.23137,-7.64867 6.88909,-3.84677 12.89514,-6.99412 13.34678,-6.99412 0.45165,0 9.62142,5.2569 20.37727,11.68201 10.75586,6.4251 19.5561,11.9812 19.5561,12.34688 0,0.36569 -19.18104,11.17812 -42.62453,24.02764 -23.44349,12.84951 -43.13099,23.43629 -43.75,23.52618 z M 135.09269,447.07957 c -0.18493,-0.0423 -20.81124,-11.47196 -45.836241,-25.39931 l -45.5,-25.32245 0,-91.81249 0,-91.81248 7.848588,-4.85629 c 4.316723,-2.67096 7.979391,-4.71315 8.139261,-4.53821 0.159871,0.17494 0.553241,14.49308 0.874156,31.81808 0.320915,17.325 0.878279,47.025 1.238586,66 0.360308,18.975 0.732473,34.5974 0.827033,34.71644 0.09456,0.11905 7.349529,-4.06902 16.122152,-9.3068 8.772623,-5.23779 16.839258,-10.06019 17.925855,-10.71645 1.086597,-0.65625 4.35783,-2.65569 7.26942,-4.44319 2.91158,-1.7875 5.67968,-3.25 6.15133,-3.25 0.47166,0 5.75042,2.72818 11.73059,6.06262 5.98017,3.33444 11.15834,6.37194 11.50704,6.75 0.34871,0.37806 0.95002,28.92488 1.33624,63.43738 0.38622,34.5125 0.55092,62.71542 0.36599,62.67315 z m 470.44228,-0.92315 c -0.24805,0 -0.13499,-28.2375 0.25123,-62.75 0.38622,-34.5125 0.98753,-63.05932 1.33624,-63.43738 0.3487,-0.37806 5.52687,-3.41556 11.50704,-6.75 5.98017,-3.33444 11.25893,-6.06262 11.73058,-6.06262 0.47166,0 3.23976,1.4625 6.15134,3.25 2.91158,1.7875 6.18282,3.78694 7.26942,4.44319 1.0866,0.65626 9.15323,5.47866 17.92585,10.71645 8.77263,5.23778 16.0276,9.42585 16.12216,9.3068 0.0946,-0.11904 0.46672,-15.74144 0.82703,-34.71644 0.36031,-18.975 0.91767,-48.675 1.23859,-66 0.32091,-17.325 0.71428,-31.64314 0.87415,-31.81808 0.15987,-0.17494 3.82254,1.86725 8.13926,4.53821 l 7.84859,4.85629 0,92.32456 0,92.32457 -45.38524,24.88722 c -24.96189,13.68798 -45.58819,24.88723 -45.83624,24.88723 z M 132.14509,194.11182 c -0.21375,-0.0245 -11.14906,-6.08245 -24.30069,-13.46205 -13.151623,-7.37959 -24.240212,-13.77202 -24.641307,-14.2054 -0.401094,-0.43337 -1.037151,-25.18162 -1.41346,-54.99609 l -0.684197,-54.208151 20.825504,11.51273 c 11.45403,6.332002 22.73801,12.477837 25.07551,13.657411 l 4.25,2.144678 0.0239,24.550742 c 0.0132,13.5029 0.30056,38.16323 0.63865,54.80073 0.33809,16.6375 0.43982,30.22993 0.22606,30.2054 z m 480.32048,-3.20088 -4.29087,2.48344 0.66101,-53.86898 c 0.36356,-29.62794 0.94445,-54.151252 1.29088,-54.496252 0.34642,-0.345 11.39358,-6.532503 24.54924,-13.750003 13.15566,-7.2175 24.09875,-13.122727 24.31799,-13.122727 0.21923,0 0.0954,23.9625 -0.27527,53.250002 -0.47935,37.87925 -1.00412,53.56421 -1.81798,54.33855 -0.62927,0.5987 -9.91912,5.9472 -20.64412,11.88554 -10.725,5.93835 -21.43089,11.91454 -23.79088,13.28043 z"
       id="path6724"
       inkscape:connector-curvature="0" />
    <path
       style="fill:#dd6417"
       d="m 368.88192,575.73913 c -0.61901,0.0899 -19.90343,-10.24196 -42.85427,-22.95964 -36.74994,-20.36415 -41.52253,-23.28014 -40,-24.43948 0.95084,-0.72403 9.97494,-6.23653 20.05355,-12.25 10.07862,-6.01347 18.68589,-10.93359 19.12727,-10.93359 0.44139,0 6.43904,3.14735 13.32813,6.99412 6.88908,3.84676 13.2932,7.28866 14.23137,7.64867 1.5886,0.60961 1.66573,-1.02128 1.12291,-23.74411 -0.32057,-13.41927 -0.88199,-53.47098 -1.2476,-89.00378 -0.45694,-44.40905 -0.33908,-64.80638 0.37702,-65.24895 0.57298,-0.35412 4.51174,1.31404 8.7528,3.70702 l 7.71103,4.35087 8.45765,-4.86675 c 4.65171,-2.67671 8.93801,-4.56988 9.52512,-4.20702 0.74994,0.46348 0.86973,19.87703 0.40272,65.26483 -0.36561,35.5328 -0.92703,75.58451 -1.2476,89.00378 -0.54282,22.72283 -0.46569,24.35372 1.12291,23.74411 0.93817,-0.36001 7.34229,-3.80191 14.23137,-7.64867 6.88909,-3.84677 12.89514,-6.99412 13.34678,-6.99412 0.45165,0 9.62142,5.2569 20.37727,11.68201 10.75586,6.4251 19.5561,11.9812 19.5561,12.34688 0,0.36569 -19.18104,11.17812 -42.62453,24.02764 -23.44349,12.84951 -43.13099,23.43629 -43.75,23.52618 z M 135.00645,447.0856 c -0.1375,-0.0389 -10.86703,-6.00876 -23.8434,-13.26624 L 87.569646,420.62394 109.77241,407.41276 c 12.21151,-7.26614 22.94104,-13.49448 23.8434,-13.84074 1.49599,-0.57407 1.64064,1.76039 1.64064,26.47741 0,14.90885 -0.1125,27.07512 -0.25,27.03617 z m 470.62831,-0.92918 c -0.20807,0 -0.37831,-12.15 -0.37831,-27 0,-14.85 0.33802,-27 0.75116,-27 0.41314,0 11.26159,6.25264 24.10767,13.89475 l 23.3565,13.89475 -4.35767,2.50475 c -2.39671,1.37761 -13.07492,7.27497 -23.72935,13.10525 -10.65443,5.83027 -19.54193,10.6005 -19.75,10.6005 z M 44.084403,346.99211 c -0.463146,0.18463 -0.726405,-29.94823 -0.585019,-66.9619 l 0.257065,-67.29758 7.848588,-4.85618 c 4.316723,-2.67091 7.979391,-4.71305 8.139261,-4.53811 0.159871,0.17494 0.555076,14.49308 0.878233,31.81808 0.323157,17.325 0.862666,47.25 1.198908,66.5 l 0.611349,35 -8.753151,5 c -4.814233,2.75 -9.132088,5.15106 -9.595234,5.33569 z m 652.429087,-0.91519 c -0.41637,-0.0437 -4.72986,-2.40622 -9.58553,-5.25 l -8.82849,-5.1705 0.60167,-35 c 0.33092,-19.25 0.86607,-49.175 1.18923,-66.5 0.32316,-17.325 0.71836,-31.64314 0.87823,-31.81808 0.15987,-0.17494 3.82254,1.8672 8.13926,4.53811 l 7.84859,4.85618 0.25704,67.21189 c 0.14137,36.96655 -0.0836,67.17613 -0.5,67.1324 z m -564.3684,-151.9651 c -0.21375,-0.0245 -11.14906,-6.08245 -24.30069,-13.46205 -13.151623,-7.37959 -24.240212,-13.77202 -24.641307,-14.2054 -0.401094,-0.43337 -1.037151,-25.18162 -1.41346,-54.99609 l -0.684197,-54.208151 20.825504,11.51273 c 11.45403,6.332002 22.73801,12.477837 25.07551,13.657411 l 4.25,2.144678 0.0239,24.550742 c 0.0132,13.5029 0.30056,38.16323 0.63865,54.80073 0.33809,16.6375 0.43982,30.22993 0.22606,30.2054 z m 480.32048,-3.20088 -4.29087,2.48344 0.66101,-53.86898 c 0.36356,-29.62794 0.94445,-54.151252 1.29088,-54.496252 0.34642,-0.345 11.39358,-6.532503 24.54924,-13.750003 13.15566,-7.2175 24.09875,-13.122727 24.31799,-13.122727 0.21923,0 0.0954,23.9625 -0.27527,53.250002 -0.47935,37.87925 -1.00412,53.56421 -1.81798,54.33855 -0.62927,0.5987 -9.91912,5.9472 -20.64412,11.88554 -10.725,5.93835 -21.43089,11.91454 -23.79088,13.28043 z"
       id="path6722"
       inkscape:connector-curvature="0" />
    <path
       style="fill:#665a62"
       d="m 368.88192,575.73913 c -0.61901,0.0899 -19.90343,-10.24196 -42.85427,-22.95964 -36.74994,-20.36415 -41.52253,-23.28014 -40,-24.43948 0.95084,-0.72403 9.97494,-6.23653 20.05355,-12.25 10.07862,-6.01347 18.68589,-10.93359 19.12727,-10.93359 0.44139,0 6.43904,3.14735 13.32813,6.99412 6.88908,3.84676 13.2932,7.28866 14.23137,7.64867 1.5886,0.60961 1.66573,-1.02128 1.12291,-23.74411 -0.32057,-13.41927 -0.88199,-53.47098 -1.2476,-89.00378 -0.45694,-44.40905 -0.33908,-64.80638 0.37702,-65.24895 0.57298,-0.35412 4.51174,1.31404 8.7528,3.70702 l 7.71103,4.35087 8.45765,-4.86675 c 4.65171,-2.67671 8.93801,-4.56988 9.52512,-4.20702 0.74994,0.46348 0.86973,19.87703 0.40272,65.26483 -0.36561,35.5328 -0.92703,75.58451 -1.2476,89.00378 -0.54282,22.72283 -0.46569,24.35372 1.12291,23.74411 0.93817,-0.36001 7.34229,-3.80191 14.23137,-7.64867 6.88909,-3.84677 12.89514,-6.99412 13.34678,-6.99412 0.45165,0 9.62142,5.2569 20.37727,11.68201 10.75586,6.4251 19.5561,11.9812 19.5561,12.34688 0,0.36569 -19.18104,11.17812 -42.62453,24.02764 -23.44349,12.84951 -43.13099,23.43629 -43.75,23.52618 z M 135.00645,447.0856 c -0.1375,-0.0389 -10.86703,-6.00876 -23.8434,-13.26624 L 87.569646,420.62394 109.77241,407.41276 c 12.21151,-7.26614 22.94104,-13.49448 23.8434,-13.84074 1.49599,-0.57407 1.64064,1.76039 1.64064,26.47741 0,14.90885 -0.1125,27.07512 -0.25,27.03617 z m 470.62831,-0.92918 c -0.20807,0 -0.37831,-12.15 -0.37831,-27 0,-14.85 0.33802,-27 0.75116,-27 0.41314,0 11.26159,6.25264 24.10767,13.89475 l 23.3565,13.89475 -4.35767,2.50475 c -2.39671,1.37761 -13.07492,7.27497 -23.72935,13.10525 -10.65443,5.83027 -19.54193,10.6005 -19.75,10.6005 z"
       id="path6720"
       inkscape:connector-curvature="0" />
  </g>
  <path
     d="m 10.786248,6.6875915 0,2.352263 0.655703,0.056396 0.417957,-0.5441169 0.39347,0.068028 0,-2.7350236 z"
     id="path4146"
     inkscape:export-xdpi="72.573555"
     inkscape:export-ydpi="72.573555"
     inkscape:connector-curvature="0"
     style="fill:#f1d999" />
  <rect
     style="opacity:1;fill:none;stroke:none;stroke-width:1.01300001;stroke-miterlimit:4;stroke-dasharray:none;stroke-opacity:1"
     id="rect6790"
     width="3.7089751"
     height="3.8585603"
     x="8.7879257"
     y="9.7960739"
     ry="0.23883989"
     rx="0.22750629"
     inkscape:export-xdpi="72.573555"
     inkscape:export-ydpi="72.573555" />
  <rect
     style="opacity:1;fill:#aa4400;stroke:none;stroke-width:1.01300001;stroke-miterlimit:4;stroke-dasharray:none;stroke-opacity:1"
     id="rect7708"
     width="0.02234323"
     height="2.826483"
     x="8.0282516"
     y="8.2903442"
     inkscape:export-xdpi="72.573555"
     inkscape:export-ydpi="72.573555" />
  <g
     id="g5434"
     transform="matrix(0.28069908,-0.67404213,0.53951341,0.35069201,-53.638045,38.003001)"
     inkscape:export-xdpi="72.573555"
     inkscape:export-ydpi="72.573555">
    <path
       d="m 75.54284,65.968078 c 0,0 1.920325,-0.997506 1.920325,-0.997506 0.0017,-0.118746 0.02582,-0.218451 0.07254,-0.299233 0.04849,-0.08182 0.110501,-0.14268 0.186145,-0.182535 0.07758,-0.04087 0.140165,-0.0455 0.18764,-0.01373 0.04927,0.03278 0.07395,0.117045 0.07395,0.252746 0,0 -0.0026,1.181302 -0.0026,1.181302 0,0.183368 -0.03147,0.37745 -0.09429,0.581834 -0.06265,0.205665 -0.141998,0.384122 -0.237865,0.535316 -0.07206,0.114095 -0.170573,0.243094 -0.295201,0.386679 -0.123961,0.144621 -0.246441,0.266496 -0.367459,0.36581 -0.120384,0.0988 -0.266756,0.187954 -0.438614,0.267415 0,0 -0.234008,0.108198 -0.234008,0.108198 -0.204952,0.09476 -0.385494,0.13966 -0.542191,0.135359 -0.154072,-0.005 -0.279622,-0.04712 -0.377123,-0.126155 -0.09556,-0.07768 -0.16583,-0.159996 -0.211046,-0.247065 -0.07066,-0.138289 -0.105897,-0.344036 -0.105897,-0.617573 0,0 0,-1.06318 0,-1.06318 0,-0.127307 0.02099,-0.22948 0.06303,-0.30663 0.04362,-0.07636 0.100161,-0.132884 0.169711,-0.169529 0.06825,-0.03596 0.124526,-0.03873 0.168733,-0.0082 0.04429,0.03235 0.06571,0.104585 0.06418,0.21665 0,0 -10e-7,10e-7 -10e-7,10e-7 m 0,0.534598 c 0,0 0,0.5685 0,0.5685 0,0.2121 0.0268,0.359013 0.08049,0.440886 0.07076,0.107057 0.161075,0.170264 0.271179,0.189437 0.110646,0.01927 0.254832,-0.01312 0.4332,-0.09773 0,0 0.231754,-0.109937 0.231754,-0.109937 0.155824,-0.07392 0.293249,-0.172216 0.411935,-0.294991 0.186578,-0.193402 0.315112,-0.373275 0.38462,-0.538812 0.07138,-0.165032 0.107151,-0.346573 0.107151,-0.544242 0,0 0,-0.587568 0,-0.587568 0,0 -1.920325,0.974459 -1.920325,0.974459 0,0 0,0 0,0"
       style="font-style:normal;font-variant:normal;font-weight:bold;font-stretch:normal;font-size:12.5px;line-height:125%;font-family:'Courier New';-inkscape-font-specification:'Courier New, Bold';text-align:start;letter-spacing:0px;word-spacing:0px;writing-mode:lr-tb;text-anchor:start;fill:#008000;fill-opacity:1;stroke:none;stroke-width:1px;stroke-linecap:butt;stroke-linejoin:miter;stroke-opacity:1"
       id="path4203"
       inkscape:connector-curvature="0" />
    <path
       d="m 77.012997,68.770152 c 0,0 -1.470156,0.745758 -1.470156,0.745758 0,0 0,0.172895 0,0.172895 0,0.115263 -0.02218,0.208103 -0.06647,0.278417 -0.04268,0.07097 -0.09895,0.123753 -0.168715,0.158369 -0.06803,0.03376 -0.123817,0.03672 -0.16744,0.009 -0.04204,-0.02687 -0.06303,-0.09732 -0.06303,-0.21138 0,0 0,-0.621926 0,-0.621926 0,-0.114058 0.02099,-0.206703 0.06303,-0.278037 0.04362,-0.07071 0.100161,-0.124326 0.169711,-0.160818 0.06673,-0.03501 0.122241,-0.04005 0.166444,-0.01501 0.04429,0.0251 0.06647,0.08828 0.06647,0.189529 0,0 1.920323,-0.994761 1.920323,-0.994761 0,0 0,-0.07799 0,-0.07799 0,-0.120232 0.02332,-0.218569 0.07004,-0.295125 0.04848,-0.07596 0.111329,-0.134322 0.188651,-0.175062 0.07758,-0.04087 0.140165,-0.04845 0.187639,-0.02259 0.04927,0.02667 0.07395,0.100811 0.07395,0.222389 0,0 -0.0026,0.585365 -0.0026,0.585365 0,0 -2.009298,2.255312 -2.009298,2.255312 0,0 1.491576,-0.715628 1.491576,-0.715628 0,0 0,-0.180348 0,-0.180348 0,-0.120233 0.02332,-0.217729 0.07004,-0.292602 0.04848,-0.07422 0.111328,-0.13031 0.18865,-0.168263 0.07758,-0.03808 0.140165,-0.0434 0.18764,-0.01583 0.04927,0.02844 0.07395,0.103475 0.07395,0.225053 0,0 -0.0026,0.664131 -0.0026,0.664131 0,0.121572 -0.02382,0.218902 -0.07139,0.29188 -0.04748,0.07447 -0.110062,0.129627 -0.18764,0.165496 -0.07564,0.03497 -0.137656,0.0384 -0.186145,0.0104 -0.04839,-0.02794 -0.07255,-0.09388 -0.07255,-0.197868 0,0 -2.385973,1.118961 -2.385973,1.118961 0,0 0,-0.469335 0,-0.469335 0,0 1.935806,-2.200386 1.935806,-2.200386 0,0 -2e-6,2e-6 -2e-6,2e-6"
       style="font-style:normal;font-variant:normal;font-weight:bold;font-stretch:normal;font-size:12.5px;line-height:125%;font-family:'Courier New';-inkscape-font-specification:'Courier New, Bold';text-align:start;letter-spacing:0px;word-spacing:0px;writing-mode:lr-tb;text-anchor:start;fill:#008000;fill-opacity:1;stroke:none;stroke-width:1px;stroke-linecap:butt;stroke-linejoin:miter;stroke-opacity:1"
       id="path4205"
       inkscape:connector-curvature="0" />
    <path
       d="m 76.242292,72.357785 c 0,0 -0.699451,0.353213 -0.699451,0.353213 0,0 0,0.547637 0,0.547637 0,0.128652 -0.02218,0.230742 -0.06647,0.306159 -0.04268,0.07626 -0.09895,0.131284 -0.168715,0.165096 -0.06803,0.03297 -0.123817,0.03242 -0.16744,-0.0015 -0.04204,-0.0329 -0.06303,-0.112985 -0.06303,-0.240292 0,0 0,-1.153499 0,-1.153499 0,-0.127306 0.02099,-0.22948 0.06303,-0.30663 0.04362,-0.07636 0.100161,-0.132884 0.169711,-0.169529 0.06825,-0.03596 0.123764,-0.03746 0.166444,-0.0044 0.04429,0.03235 0.06647,0.112009 0.06647,0.238921 0,0 0,0.08345 0,0.08345 0,0 1.920324,-0.992784 1.920324,-0.992784 0,0 0,-0.08705 0,-0.08705 0,-0.134198 0.02332,-0.242529 0.07004,-0.325119 0.04848,-0.08182 0.111329,-0.143111 0.188651,-0.18385 0.07758,-0.04087 0.140165,-0.0455 0.18764,-0.01373 0.04927,0.03278 0.07395,0.117046 0.07395,0.252746 0,0 -0.0026,2.655587 -0.0026,2.655587 0,0 -0.785912,0.363378 -0.785912,0.363378 -0.119841,0.05541 -0.205644,0.06906 -0.257787,0.0412 -0.0504,-0.02676 -0.07556,-0.08129 -0.07556,-0.163627 0,-0.08055 0.02516,-0.158645 0.07556,-0.234409 0.05051,-0.07414 0.136309,-0.139964 0.257787,-0.19759 0,0 0.268189,-0.12722 0.268189,-0.12722 0,0 0,-1.422676 0,-1.422676 0,0 -0.730143,0.368713 -0.730143,0.368713 0,0 0,0.481945 0,0.481945 0.129419,-0.06399 0.213121,-0.09193 0.250601,-0.08353 0.08005,0.01622 0.120185,0.07564 0.120185,0.178208 0,0.08098 -0.02622,0.159377 -0.07856,0.235075 -0.05059,0.07653 -0.136024,0.143767 -0.255902,0.201602 0,0 -0.564913,0.27254 -0.564913,0.27254 -0.116331,0.05612 -0.199282,0.07067 -0.249219,0.04391 -0.04827,-0.02571 -0.07237,-0.07883 -0.07237,-0.159414 0,-0.0981 0.0381,-0.193063 0.114493,-0.28512 0.03595,-0.04411 0.117432,-0.09758 0.24495,-0.16063 0,0 0,-0.476775 0,-0.476775 0,0 -10e-7,10e-7 -10e-7,10e-7"
       style="font-style:normal;font-variant:normal;font-weight:bold;font-stretch:normal;font-size:12.5px;line-height:125%;font-family:'Courier New';-inkscape-font-specification:'Courier New, Bold';text-align:start;letter-spacing:0px;word-spacing:0px;writing-mode:lr-tb;text-anchor:start;fill:#008000;fill-opacity:1;stroke:none;stroke-width:1px;stroke-linecap:butt;stroke-linejoin:miter;stroke-opacity:1"
       id="path4207"
       inkscape:connector-curvature="0" />
  </g>
  <g
     style="fill:#0000ff"
     transform="matrix(-0.16099238,-0.35398691,0.30216887,-0.18382467,-0.35613105,53.45659)"
     id="g6097">
    <path
       d="m 80.907998,74.567365 c 0,0 -3.212053,-1.929594 -3.212053,-1.929594 0,0 0,0.106227 0,0.106227 0,0.147704 -0.02842,0.236858 -0.08523,0.267464 -0.05486,0.03177 -0.127361,0.0206 -0.217477,-0.03356 -0.08816,-0.05297 -0.160646,-0.128895 -0.217455,-0.227768 -0.05485,-0.09567 -0.08227,-0.218357 -0.08227,-0.368062 0,0 0,-0.728292 0,-0.728292 0,0 0.14692,0.08823 0.14692,0.08823 -0.08032,-0.189852 -0.141043,-0.375015 -0.182178,-0.55549 -0.04113,-0.178449 -0.0617,-0.350614 -0.0617,-0.516499 0,-0.467311 0.130263,-0.765409 0.390813,-0.894306 0.262543,-0.12774 0.588807,-0.07463 0.978825,0.159378 0.407735,0.244635 0.755746,0.603214 1.044002,1.075751 0.288297,0.472603 0.432459,0.924525 0.432459,1.355718 0,0.161951 -0.02452,0.306143 -0.07355,0.432574 -0.04707,0.127613 -0.118656,0.238464 -0.214763,0.33257 0,0 0.750296,0.450616 0.750296,0.450616 0,0 0,-0.10629 0,-0.10629 0,-0.149822 0.02746,-0.240632 0.08239,-0.272432 0.0569,-0.02861 0.129496,-0.01639 0.217792,0.03663 0.09027,0.0542 0.162868,0.12918 0.217815,0.224944 0.05691,0.09897 0.08537,0.223378 0.08537,0.37322 0,0 0,0.728965 0,0.728965 0,0 0,0 0,0 m -2.559448,-2.159825 c 0.248942,0.149511 0.459685,0.186016 0.632215,0.109503 0.172544,-0.07653 0.258822,-0.245341 0.258822,-0.506449 0,-0.259082 -0.08628,-0.530484 -0.258822,-0.814185 -0.17253,-0.283677 -0.380332,-0.498449 -0.623395,-0.64432 -0.221475,-0.132916 -0.403734,-0.161357 -0.546785,-0.08534 -0.141083,0.07718 -0.211621,0.26348 -0.211621,0.558879 0,0.293377 0.07053,0.564365 0.211621,0.812978 0.143051,0.249805 0.32237,0.439453 0.537965,0.568934 0,0 0,0 0,0"
       style="font-style:normal;font-variant:normal;font-weight:bold;font-stretch:normal;font-size:medium;line-height:125%;font-family:'Courier New';-inkscape-font-specification:'Courier New, Bold';text-align:start;letter-spacing:0px;word-spacing:0px;writing-mode:lr-tb;text-anchor:start;fill:#0000ff;fill-opacity:1;stroke:none;stroke-width:1px;stroke-linecap:butt;stroke-linejoin:miter;stroke-opacity:1"
       id="path5444"
       inkscape:connector-curvature="0" />
    <path
       d="m 79.886347,76.072112 c 0,0 -0.398877,-0.251378 -0.398877,-0.251378 0.193193,0.350743 0.322002,0.612111 0.38641,0.784078 0.06441,0.173748 0.09662,0.318322 0.09662,0.433716 0,0.177528 -0.07688,0.301248 -0.230626,0.371155 -0.103874,0.04809 -0.209819,0.03807 -0.317833,-0.03006 -0.09139,-0.05764 -0.169277,-0.134279 -0.233659,-0.229906 -0.0623,-0.09254 -0.09345,-0.176965 -0.09345,-0.253281 0,-0.06744 0.03946,-0.11355 0.118376,-0.138328 0.07892,-0.02478 0.118384,-0.06645 0.118384,-0.125027 0,-0.07632 -0.05608,-0.226157 -0.168228,-0.449496 -0.112142,-0.221548 -0.280339,-0.516572 -0.504574,-0.885045 0,0 -0.961971,-0.606249 -0.961971,-0.606249 0,0 0,0.776999 0,0.776999 0,0.131274 -0.03008,0.205438 -0.09025,0.222491 -0.05809,0.02014 -0.134848,1.15e-4 -0.230272,-0.06006 -0.09334,-0.05886 -0.170089,-0.135635 -0.230238,-0.230321 -0.05807,-0.0916 -0.08711,-0.203022 -0.08711,-0.334268 0,0 0,-1.64679 0,-1.64679 0,-0.131246 0.02903,-0.206959 0.08711,-0.227138 0.06015,-0.0171 0.137931,0.0044 0.233349,0.06449 0.09335,0.05879 0.169071,0.133978 0.227161,0.225556 0.06017,0.09466 0.09025,0.207631 0.09025,0.338905 0,0 0,0.324636 0,0.324636 0,0 1.550657,0.976974 1.550657,0.976974 0,0 0,-0.19701 0,-0.19701 0,-0.131339 0.02908,-0.207092 0.08723,-0.227256 0.06023,-0.01708 0.138127,0.0045 0.233681,0.06465 0.09348,0.05888 0.169312,0.134156 0.227484,0.225828 0.06025,0.09476 0.09038,0.207823 0.09038,0.33919 0,0 0,0.742934 0,0.742934 0,0 0,0 0,0"
       style="font-style:normal;font-variant:normal;font-weight:bold;font-stretch:normal;font-size:medium;line-height:125%;font-family:'Courier New';-inkscape-font-specification:'Courier New, Bold';text-align:start;letter-spacing:0px;word-spacing:0px;writing-mode:lr-tb;text-anchor:start;fill:#0000ff;fill-opacity:1;stroke:none;stroke-width:1px;stroke-linecap:butt;stroke-linejoin:miter;stroke-opacity:1"
       id="path5446"
       inkscape:connector-curvature="0" />
    <path
       d="m 77.161107,78.095874 c 0,0 0.144101,0.09084 0.144101,0.09084 -0.08206,-0.185541 -0.1431,-0.37173 -0.183126,-0.558569 -0.04203,-0.188096 -0.06304,-0.348174 -0.06304,-0.48024 0,-0.286722 0.08705,-0.464734 0.261175,-0.534044 0.176143,-0.06806 0.370324,-0.03526 0.58255,0.0984 0.258314,0.162691 0.497644,0.427294 0.717981,0.793828 0.222371,0.369588 0.333569,0.7561 0.333569,1.159496 0,0.161707 -0.02004,0.335995 -0.06011,0.522863 0,0 0.147269,0.09284 0.147269,0.09284 0.09217,0.05811 0.167322,0.0707 0.225438,0.03778 0.05812,-0.03118 0.08718,-0.14329 0.08718,-0.33632 0,-0.158249 -0.03607,-0.386183 -0.10822,-0.683791 -0.02605,-0.110318 -0.03908,-0.191559 -0.03908,-0.243727 0,-0.0713 0.02906,-0.113853 0.08718,-0.127673 0.06012,-0.01082 0.136283,0.01281 0.228482,0.07088 0.05212,0.03283 0.09722,0.06993 0.135301,0.111311 0.03809,0.04139 0.06816,0.08468 0.09021,0.12987 0.02406,0.04646 0.05212,0.129362 0.0842,0.248708 0.0421,0.15871 0.07518,0.314349 0.09924,0.466915 0.02607,0.153833 0.0391,0.286409 0.0391,0.397728 0,0.332216 -0.0832,0.537185 -0.249597,0.6149 -0.164372,0.08071 -0.389852,0.0307 -0.676416,-0.150006 0,0 -1.267854,-0.799496 -1.267854,-0.799496 0,0 0,0.09125 0,0.09125 0,0.12862 -0.02903,0.201562 -0.08709,0.218825 -0.05606,0.02026 -0.130124,0.0014 -0.222205,-0.05673 -0.09007,-0.05681 -0.164131,-0.131329 -0.222173,-0.223548 -0.05604,-0.08921 -0.08406,-0.198118 -0.08406,-0.326713 0,0 0,-0.625595 0,-0.625595 0,0 0,2e-6 0,2e-6 m 1.102112,0.694789 c 0.04807,-0.183522 0.0721,-0.365684 0.0721,-0.546481 0,-0.217303 -0.06108,-0.442673 -0.183249,-0.676097 -0.0781,-0.146549 -0.157195,-0.245051 -0.237289,-0.29551 -0.05806,-0.03658 -0.105116,-0.04276 -0.141154,-0.01853 -0.06607,0.04528 -0.0991,0.143524 -0.0991,0.294735 0,0.128616 0.02903,0.292038 0.08709,0.490272 0.05806,0.19998 0.137149,0.394969 0.237266,0.584971 0,0 0.264338,0.166643 0.264338,0.166643 0,0 0,0 0,0"
       style="font-style:normal;font-variant:normal;font-weight:bold;font-stretch:normal;font-size:medium;line-height:125%;font-family:'Courier New';-inkscape-font-specification:'Courier New, Bold';text-align:start;letter-spacing:0px;word-spacing:0px;writing-mode:lr-tb;text-anchor:start;fill:#0000ff;fill-opacity:1;stroke:none;stroke-width:1px;stroke-linecap:butt;stroke-linejoin:miter;stroke-opacity:1"
       id="path5448"
       inkscape:connector-curvature="0" />
    <path
       d="m 79.82636,83.01833 c 0,0 0.180406,0.101747 0.180406,0.101747 0,0 0,0.733357 0,0.733357 0,0.150746 -0.02858,0.241564 -0.08576,0.272453 -0.0552,0.03404 -0.128159,0.02548 -0.218844,-0.02569 -0.08872,-0.05005 -0.161653,-0.123794 -0.218821,-0.22123 -0.05519,-0.09427 -0.0828,-0.216783 -0.0828,-0.367508 0,0 0,-0.106928 0,-0.106928 0,0 -2.204616,-1.243588 -2.204616,-1.243588 -0.212658,-0.11996 -0.397731,-0.271171 -0.555228,-0.453643 -0.159454,-0.181534 -0.296259,-0.400154 -0.410421,-0.655858 -0.114156,-0.255691 -0.171232,-0.50361 -0.171232,-0.743766 0,0 0,-0.708257 0,-0.708257 0,-0.150606 0.02853,-0.24239 0.08561,-0.275351 0.05511,-0.03204 0.126952,-0.02311 0.215526,0.02681 0.09055,0.05104 0.164365,0.124175 0.221455,0.219447 0.05512,0.0962 0.08268,0.219614 0.08268,0.370242 0,0 0,0.690036 0,0.690036 0,0.191339 0.05021,0.368238 0.150608,0.530705 0.100414,0.162474 0.227407,0.287019 0.380996,0.373632 0,0 0.295393,0.166584 0.295393,0.166584 -0.08665,-0.187306 -0.151641,-0.365441 -0.194964,-0.534413 -0.04332,-0.166934 -0.06498,-0.325722 -0.06498,-0.476369 0,-0.425478 0.136865,-0.704611 0.410613,-0.837411 0.275756,-0.131705 0.615577,-0.08379 1.019492,0.143757 0.405961,0.228712 0.745965,0.563859 1.019978,1.005452 0.27602,0.442762 0.414044,0.877044 0.414044,1.302808 0,0.158897 -0.02269,0.296862 -0.06803,0.41389 -0.04338,0.120173 -0.110413,0.219877 -0.20111,0.299101 0,0 0,0 0,0 m -1.161929,-0.658307 c 0.222678,0.125578 0.415817,0.148954 0.579406,0.07012 0.163603,-0.0768 0.245409,-0.234365 0.245409,-0.472677 0,-0.238312 -0.08181,-0.489124 -0.245409,-0.752422 -0.163589,-0.26124 -0.356728,-0.454601 -0.579406,-0.580086 -0.224627,-0.126584 -0.418691,-0.151441 -0.582204,-0.07459 -0.161533,0.07999 -0.242294,0.239101 -0.242294,0.477321 0,0.238221 0.08076,0.487364 0.242294,0.747445 0.163513,0.263247 0.357577,0.45821 0.582204,0.584884 0,0 0,0 0,0"
       style="font-style:normal;font-variant:normal;font-weight:bold;font-stretch:normal;font-size:medium;line-height:125%;font-family:'Courier New';-inkscape-font-specification:'Courier New, Bold';text-align:start;letter-spacing:0px;word-spacing:0px;writing-mode:lr-tb;text-anchor:start;fill:#0000ff;fill-opacity:1;stroke:none;stroke-width:1px;stroke-linecap:butt;stroke-linejoin:miter;stroke-opacity:1"
       id="path5450"
       inkscape:connector-curvature="0" />
    <path
       d="m 78.471975,85.967889 c -0.236581,-0.14922 -0.46611,-0.35276 -0.68859,-0.610608 -0.220444,-0.254767 -0.396776,-0.539566 -0.529013,-0.854404 -0.130221,-0.311769 -0.195328,-0.593153 -0.195328,-0.844174 0,-0.24924 0.0641,-0.447405 0.192323,-0.594504 0.130232,-0.145849 0.306564,-0.208372 0.529012,-0.187556 0.22248,0.02082 0.455015,0.107614 0.697611,0.260405 0.246646,0.155341 0.488317,0.368116 0.72501,0.638337 0.238736,0.271527 0.426341,0.563425 0.562794,0.875682 0.136466,0.314067 0.204704,0.594958 0.204704,0.842652 0,0.249477 -0.07024,0.444868 -0.210724,0.586164 -0.13846,0.144329 -0.326063,0.200633 -0.562792,0.168923 -0.234687,-0.03044 -0.476357,-0.124085 -0.725007,-0.280917 0,0 0,0 0,0 m -0.003,-0.549585 c 0.198516,0.125175 0.381012,0.177012 0.547483,0.155498 0.224664,-0.03116 0.337009,-0.18749 0.337009,-0.468986 0,-0.247644 -0.08927,-0.510566 -0.267808,-0.78874 -0.178512,-0.278143 -0.38508,-0.491112 -0.619691,-0.638915 -0.192475,-0.121258 -0.372898,-0.151222 -0.541274,-0.08991 -0.166354,0.06257 -0.249523,0.215827 -0.249523,0.459776 0,0.245729 0.08317,0.504716 0.249523,0.776982 0.168376,0.273561 0.349801,0.471662 0.544281,0.594293 0,0 0,0 0,0"
       style="font-style:normal;font-variant:normal;font-weight:bold;font-stretch:normal;font-size:medium;line-height:125%;font-family:'Courier New';-inkscape-font-specification:'Courier New, Bold';text-align:start;letter-spacing:0px;word-spacing:0px;writing-mode:lr-tb;text-anchor:start;fill:#0000ff;fill-opacity:1;stroke:none;stroke-width:1px;stroke-linecap:butt;stroke-linejoin:miter;stroke-opacity:1"
       id="path5452"
       inkscape:connector-curvature="0" />
    <path
       d="m 79.934072,88.225729 c 0,0 -0.398877,-0.251378 -0.398877,-0.251378 0.193193,0.350743 0.322002,0.612111 0.38641,0.784078 0.06441,0.173748 0.09662,0.318322 0.09662,0.433716 0,0.177528 -0.07688,0.301248 -0.230626,0.371155 -0.103874,0.04809 -0.209819,0.03807 -0.317833,-0.03006 -0.09139,-0.05764 -0.169277,-0.134279 -0.233659,-0.229906 -0.0623,-0.09254 -0.09345,-0.176965 -0.09345,-0.253281 0,-0.06744 0.03946,-0.11355 0.118376,-0.138328 0.07892,-0.02478 0.118384,-0.06645 0.118384,-0.125027 0,-0.07632 -0.05608,-0.226157 -0.168228,-0.449496 -0.112142,-0.221548 -0.280339,-0.516572 -0.504574,-0.885045 0,0 -0.961971,-0.606249 -0.961971,-0.606249 0,0 0,0.776999 0,0.776999 0,0.131274 -0.03008,0.205438 -0.09025,0.222491 -0.05809,0.02014 -0.134848,1.15e-4 -0.230272,-0.06006 -0.09334,-0.05886 -0.170089,-0.135635 -0.230238,-0.230321 -0.05807,-0.0916 -0.08711,-0.203022 -0.08711,-0.334268 0,0 0,-1.64679 0,-1.64679 0,-0.131246 0.02903,-0.206959 0.08711,-0.227138 0.06015,-0.0171 0.137931,0.0044 0.233349,0.06449 0.09335,0.05879 0.169071,0.133978 0.227161,0.225556 0.06017,0.09466 0.09025,0.207631 0.09025,0.338905 0,0 0,0.324636 0,0.324636 0,0 1.550657,0.976974 1.550657,0.976974 0,0 0,-0.19701 0,-0.19701 0,-0.131339 0.02908,-0.207092 0.08723,-0.227256 0.06023,-0.01708 0.138127,0.0045 0.233681,0.06465 0.09348,0.05888 0.169312,0.134156 0.227484,0.225828 0.06025,0.09476 0.09038,0.207823 0.09038,0.33919 0,0 0,0.742934 0,0.742934 0,0 0,0 0,0"
       style="font-style:normal;font-variant:normal;font-weight:bold;font-stretch:normal;font-size:medium;line-height:125%;font-family:'Courier New';-inkscape-font-specification:'Courier New, Bold';text-align:start;letter-spacing:0px;word-spacing:0px;writing-mode:lr-tb;text-anchor:start;fill:#0000ff;fill-opacity:1;stroke:none;stroke-width:1px;stroke-linecap:butt;stroke-linejoin:miter;stroke-opacity:1"
       id="path5446-4"
       inkscape:connector-curvature="0" />
    <path
       d="m 77.208832,90.249491 c 0,0 0.144101,0.09084 0.144101,0.09084 -0.08206,-0.185541 -0.1431,-0.37173 -0.183126,-0.558569 -0.04203,-0.188096 -0.06304,-0.348174 -0.06304,-0.48024 0,-0.286722 0.08705,-0.464734 0.261175,-0.534044 0.176143,-0.06806 0.370324,-0.03526 0.58255,0.0984 0.258314,0.162691 0.497644,0.427294 0.717981,0.793828 0.222371,0.369588 0.333569,0.7561 0.333569,1.159496 0,0.161707 -0.02004,0.335995 -0.06011,0.522863 0,0 0.147269,0.09284 0.147269,0.09284 0.09217,0.05811 0.167322,0.0707 0.225438,0.03778 0.05812,-0.03118 0.08718,-0.14329 0.08718,-0.33632 0,-0.158249 -0.03607,-0.386183 -0.10822,-0.683791 -0.02605,-0.110318 -0.03908,-0.191559 -0.03908,-0.243727 0,-0.0713 0.02906,-0.113853 0.08718,-0.127673 0.06012,-0.01082 0.136283,0.01281 0.228482,0.07088 0.05212,0.03283 0.09722,0.06993 0.135301,0.111311 0.03809,0.04139 0.06816,0.08468 0.09021,0.12987 0.02406,0.04646 0.05212,0.129362 0.0842,0.248708 0.0421,0.15871 0.07518,0.314349 0.09924,0.466915 0.02607,0.153833 0.0391,0.286409 0.0391,0.397728 0,0.332216 -0.0832,0.537185 -0.249597,0.6149 -0.164372,0.08071 -0.389852,0.0307 -0.676416,-0.150006 0,0 -1.267854,-0.799496 -1.267854,-0.799496 0,0 0,0.09125 0,0.09125 0,0.12862 -0.02903,0.201562 -0.08709,0.218825 -0.05606,0.02026 -0.130124,0.0014 -0.222205,-0.05673 -0.09007,-0.05681 -0.164131,-0.131329 -0.222173,-0.223548 -0.05604,-0.08921 -0.08406,-0.198118 -0.08406,-0.326713 0,0 0,-0.625595 0,-0.625595 0,0 0,2e-6 0,2e-6 m 1.102112,0.694789 c 0.04807,-0.183522 0.0721,-0.365684 0.0721,-0.546481 0,-0.217303 -0.06108,-0.442673 -0.183249,-0.676097 -0.0781,-0.146549 -0.157195,-0.245051 -0.237289,-0.29551 -0.05806,-0.03658 -0.105116,-0.04276 -0.141154,-0.01853 -0.06607,0.04528 -0.0991,0.143524 -0.0991,0.294735 0,0.128616 0.02903,0.292038 0.08709,0.490272 0.05806,0.19998 0.137149,0.394969 0.237266,0.584971 0,0 0.264338,0.166643 0.264338,0.166643 0,0 0,0 0,0"
       style="font-style:normal;font-variant:normal;font-weight:bold;font-stretch:normal;font-size:medium;line-height:125%;font-family:'Courier New';-inkscape-font-specification:'Courier New, Bold';text-align:start;letter-spacing:0px;word-spacing:0px;writing-mode:lr-tb;text-anchor:start;fill:#0000ff;fill-opacity:1;stroke:none;stroke-width:1px;stroke-linecap:butt;stroke-linejoin:miter;stroke-opacity:1"
       id="path5448-3"
       inkscape:connector-curvature="0" />
  </g>
  <g
     id="g7236"
     transform="matrix(0.12557286,-0.23031835,0.21938915,0.13182849,-21.113386,19.00661)"
     style="fill:#800080"
     inkscape:export-xdpi="115"
     inkscape:export-ydpi="115">
    <path
       inkscape:connector-curvature="0"
       id="path6111"
       style="font-style:normal;font-variant:normal;font-weight:bold;font-stretch:normal;font-size:medium;line-height:125%;font-family:'Courier New';-inkscape-font-specification:'Courier New, Bold';text-align:start;letter-spacing:0px;word-spacing:0px;writing-mode:lr-tb;text-anchor:start;fill:#800080;fill-opacity:1;stroke:none;stroke-width:1px;stroke-linecap:butt;stroke-linejoin:miter;stroke-opacity:1"
       d="m 72.453125,71.210414 c 0,0 -0.633918,0.290478 -0.633918,0.290478 0,0 0,-0.871796 0,-0.871796 0,0 0.633918,-0.300094 0.633918,-0.300094 0,0 0,0.881412 0,0.881412 0,0 0,0 0,0 m -1.126636,0.615437 c 0,0 -1.92897,0.880545 -1.92897,0.880545 0,0 0,0.841901 0,0.841901 0,0.168836 -0.02562,0.299786 -0.07677,0.392718 -0.0493,0.09427 -0.114319,0.158825 -0.194934,0.193705 -0.07863,0.03402 -0.14312,0.02569 -0.193557,-0.02484 -0.04861,-0.04894 -0.07288,-0.15697 -0.07288,-0.324156 0,0 0,-2.362065 0,-2.362065 0,-0.167186 0.02427,-0.298816 0.07288,-0.395017 0.05044,-0.09497 0.115795,-0.162288 0.196182,-0.201923 0.07887,-0.03888 0.143005,-0.03522 0.192309,0.01113 0.05116,0.04785 0.07677,0.15623 0.07677,0.325066 0,0 0,0.841902 0,0.841902 0,0 1.352645,-0.634702 1.352645,-0.634702 0,0 0,-0.578567 0,-0.578567 0,-0.170648 0.02599,-0.305969 0.07803,-0.406102 0.054,-0.101227 0.123988,-0.17287 0.210074,-0.21488 0.08447,-0.04122 0.153166,-0.03823 0.205978,0.0091 0.0548,0.0489 0.08224,0.160754 0.08224,0.335507 0,0 0,1.31065 0,1.31065 0,0 0,0 0,0" />
    <path
       inkscape:connector-curvature="0"
       id="path6113"
       style="font-style:normal;font-variant:normal;font-weight:bold;font-stretch:normal;font-size:medium;line-height:125%;font-family:'Courier New';-inkscape-font-specification:'Courier New, Bold';text-align:start;letter-spacing:0px;word-spacing:0px;writing-mode:lr-tb;text-anchor:start;fill:#800080;fill-opacity:1;stroke:none;stroke-width:1px;stroke-linecap:butt;stroke-linejoin:miter;stroke-opacity:1"
       d="m 71.673071,73.938291 c 0,0 -0.226644,0.114788 -0.226644,0.114788 0.104837,0.04704 0.183775,0.117395 0.236548,0.211053 0.05289,0.09566 0.07938,0.214531 0.07938,0.356438 0,0.326926 -0.124468,0.645153 -0.371435,0.952234 -0.194846,0.241517 -0.447855,0.434878 -0.757108,0.580118 0,0 -1.171703,0.550289 -1.171703,0.550289 0,0.111043 -0.02895,0.206516 -0.08674,0.286262 -0.05565,0.07862 -0.128982,0.138921 -0.219811,0.180917 -0.0885,0.04092 -0.160997,0.04739 -0.217655,0.0196 -0.05457,-0.02694 -0.0818,-0.102741 -0.0818,-0.227445 0,0 0,-0.467638 0,-0.467638 0,-0.124704 0.02723,-0.227246 0.0818,-0.307774 0.05666,-0.07999 0.13014,-0.142104 0.220611,-0.186317 0.08886,-0.04343 0.161202,-0.05238 0.216855,-0.02669 0.05779,0.02479 0.08674,0.09273 0.08674,0.203769 0,0 1.190646,-0.573183 1.190646,-0.573183 0.141519,-0.06813 0.245572,-0.149958 0.311645,-0.245379 0.08553,-0.1245 0.128421,-0.270145 0.128421,-0.436591 0,-0.12572 -0.03003,-0.221474 -0.08997,-0.287136 -0.05765,-0.0648 -0.181017,-0.121843 -0.369039,-0.170964 0,0 -1.171703,0.593428 -1.171703,0.593428 0,0.13496 -0.01498,0.229597 -0.0449,0.283858 -0.05974,0.113417 -0.147057,0.198644 -0.261642,0.255685 -0.0885,0.04405 -0.160997,0.0531 -0.217656,0.02731 -0.05457,-0.02501 -0.0818,-0.09984 -0.0818,-0.224545 0,0 0,-0.588972 0,-0.588972 0,-0.124704 0.02723,-0.228286 0.0818,-0.310898 0.05666,-0.08216 0.13014,-0.147075 0.220611,-0.194743 0.110639,-0.05829 0.196963,-0.06287 0.258686,-0.01342 0.02993,0.0253 0.0449,0.105445 0.0449,0.240405 0,0 1.54395,-0.800109 1.54395,-0.800109 0,-0.11488 0.03103,-0.215927 0.0932,-0.303316 0.06234,-0.08762 0.142131,-0.15704 0.23954,-0.208229 0.09782,-0.0514 0.177461,-0.06556 0.238742,-0.04226 0.06364,0.024 0.09552,0.102367 0.09552,0.23504 0,0 0,0.524418 0,0.524418 0,0 2e-6,-10e-7 2e-6,-10e-7" />
    <path
       inkscape:connector-curvature="0"
       id="path6115"
       style="font-style:normal;font-variant:normal;font-weight:bold;font-stretch:normal;font-size:medium;line-height:125%;font-family:'Courier New';-inkscape-font-specification:'Courier New, Bold';text-align:start;letter-spacing:0px;word-spacing:0px;writing-mode:lr-tb;text-anchor:start;fill:#800080;fill-opacity:1;stroke:none;stroke-width:1px;stroke-linecap:butt;stroke-linejoin:miter;stroke-opacity:1"
       d="m 70.86064,78.811781 c 0.06389,-0.137145 0.1114,-0.271989 0.14244,-0.40438 0.03316,-0.133585 0.04975,-0.264532 0.04975,-0.3927 0,-0.254198 -0.04043,-0.435662 -0.12108,-0.544107 -0.03507,-0.04819 -0.07317,-0.06176 -0.114287,-0.04079 -0.0472,0.02407 -0.09327,0.0921 -0.138238,0.203984 -0.03265,0.08431 -0.06423,0.251566 -0.09475,0.501609 -0.05687,0.4591 -0.11359,0.786287 -0.170174,0.982051 -0.07456,0.256443 -0.184938,0.478568 -0.330621,0.666096 -0.144752,0.186331 -0.296439,0.315882 -0.454912,0.389154 -0.213433,0.09869 -0.39039,0.08096 -0.531711,-0.05184 -0.202763,-0.187978 -0.303452,-0.506874 -0.303452,-0.957973 0,-0.180846 0.01503,-0.356027 0.04511,-0.525717 0.02824,-0.166926 0.07067,-0.329094 0.127373,-0.486645 -0.02459,-0.01792 -0.04348,-0.04078 -0.0567,-0.06859 -0.01321,-0.02779 -0.01981,-0.06001 -0.01981,-0.09667 0,-0.09775 0.02925,-0.191464 0.08787,-0.281331 0.06067,-0.08906 0.161529,-0.170806 0.303118,-0.245406 0,0 0.199554,-0.105141 0.199554,-0.105141 0.143775,-0.07575 0.246339,-0.100742 0.307121,-0.07455 0.06291,0.02731 0.09444,0.08889 0.09444,0.184665 0,0.07704 -0.02069,0.152275 -0.06202,0.225607 -0.03929,0.07219 -0.107881,0.147917 -0.205508,0.227018 -0.0778,0.137004 -0.136936,0.283789 -0.177564,0.440495 -0.03862,0.155453 -0.05791,0.321614 -0.05791,0.498683 0,0.290312 0.04246,0.495265 0.127606,0.615202 0.0427,0.05601 0.08742,0.07292 0.134189,0.05062 0.07816,-0.03726 0.142845,-0.123158 0.193941,-0.257818 0.05121,-0.134966 0.09464,-0.384167 0.130228,-0.747801 0.05151,-0.541344 0.150893,-0.937058 0.298785,-1.187433 0.146842,-0.250959 0.329187,-0.433949 0.547878,-0.548569 0.227007,-0.118977 0.417545,-0.119135 0.570688,10e-4 0.211428,0.162839 0.317862,0.46574 0.317862,0.907594 0,0.153783 -0.01493,0.30836 -0.04476,0.463584 -0.02767,0.156164 -0.07123,0.313298 -0.130597,0.471237 0.02967,0.02688 0.05194,0.05409 0.0668,0.0816 0.01487,0.0297 0.02231,0.05968 0.02231,0.08995 0,0.0908 -0.03399,0.182399 -0.101812,0.274588 -0.06552,0.09094 -0.17606,0.172546 -0.330986,0.24465 0,0 -0.155973,0.07259 -0.155973,0.07259 -0.138453,0.06444 -0.232006,0.09098 -0.281199,0.07995 -0.094,-0.02391 -0.14085,-0.094 -0.14085,-0.210348 0,-0.07827 0.02341,-0.158159 0.07032,-0.239793 0.047,-0.0818 0.109469,-0.149908 0.18754,-0.204333 0,0 -4e-6,3e-6 -4e-6,3e-6" />
    <path
       inkscape:connector-curvature="0"
       id="path6119"
       style="font-style:normal;font-variant:normal;font-weight:bold;font-stretch:normal;font-size:medium;line-height:125%;font-family:'Courier New';-inkscape-font-specification:'Courier New, Bold';text-align:start;letter-spacing:0px;word-spacing:0px;writing-mode:lr-tb;text-anchor:start;fill:#800080;fill-opacity:1;stroke:none;stroke-width:1px;stroke-linecap:butt;stroke-linejoin:miter;stroke-opacity:1"
       d="m 72.453125,85.190231 c 0,0 -2.983684,1.31688 -2.983684,1.31688 0,0 0,0.09746 0,0.09746 0,0.135511 -0.02504,0.243872 -0.07507,0.32497 -0.04821,0.08021 -0.111787,0.13735 -0.190623,0.17146 -0.0769,0.03327 -0.139975,0.03108 -0.189308,-0.0065 -0.04755,-0.03637 -0.07129,-0.122562 -0.07129,-0.258618 0,0 0,-0.661895 0,-0.661895 0,0 0.127434,-0.05756 0.127434,-0.05756 -0.06974,-0.09734 -0.122348,-0.208596 -0.157929,-0.333844 -0.03554,-0.123249 -0.05329,-0.260079 -0.05329,-0.410613 0,-0.424064 0.112614,-0.819705 0.339244,-1.189208 0.230244,-0.373428 0.519038,-0.64659 0.868202,-0.818743 0.369694,-0.182275 0.689079,-0.199172 0.956351,-0.0478 0.269818,0.152812 0.405692,0.434491 0.405692,0.843944 0,0.153785 -0.02315,0.315384 -0.0694,0.48459 -0.04433,0.168089 -0.111618,0.344458 -0.201699,0.528866 0,0 0.710858,-0.321107 0.710858,-0.321107 0,0 0,-0.101699 0,-0.101699 0,-0.143348 0.02636,-0.25808 0.07914,-0.344316 0.05477,-0.08532 0.124804,-0.147661 0.210209,-0.186982 0.08756,-0.04031 0.158189,-0.04257 0.211749,-0.0066 0.05558,0.03709 0.08341,0.128058 0.08341,0.272863 0,0 0,0.704453 0,0.704453 0,0 0,0 0,0 m -2.402191,0.48339 c 0.225016,-0.101643 0.416908,-0.272427 0.574975,-0.512744 0.15896,-0.241675 0.238777,-0.48579 0.238777,-0.731317 0,-0.243624 -0.07982,-0.412206 -0.238777,-0.505348 -0.158067,-0.09262 -0.34729,-0.08539 -0.567032,0.02068 -0.198751,0.09593 -0.361264,0.248937 -0.488162,0.458797 -0.124592,0.208078 -0.186677,0.447067 -0.186677,0.71767 0,0.268749 0.06208,0.44972 0.186677,0.543229 0.126898,0.09314 0.286782,0.09641 0.480219,0.009 0,0 0,0 0,0" />
    <path
       inkscape:connector-curvature="0"
       id="path6121"
       style="font-style:normal;font-variant:normal;font-weight:bold;font-stretch:normal;font-size:medium;line-height:125%;font-family:'Courier New';-inkscape-font-specification:'Courier New, Bold';text-align:start;letter-spacing:0px;word-spacing:0px;writing-mode:lr-tb;text-anchor:start;fill:#800080;fill-opacity:1;stroke:none;stroke-width:1px;stroke-linecap:butt;stroke-linejoin:miter;stroke-opacity:1"
       d="m 70.024435,89.794812 c 0,0 0,-2.30413 0,-2.30413 -0.157302,0.139007 -0.283331,0.3061 -0.378604,0.501381 -0.09487,0.196261 -0.142153,0.419559 -0.142153,0.670517 0,0.205821 0.04728,0.456535 0.142153,0.753082 0.03884,0.122956 0.05828,0.211717 0.05828,0.266124 0,0.07435 -0.02819,0.150036 -0.08446,0.226897 -0.05613,0.07667 -0.126577,0.13455 -0.211205,0.173679 -0.07666,0.03544 -0.141607,0.03854 -0.194953,0.0094 -0.0703,-0.039 -0.137537,-0.182029 -0.201743,-0.428631 -0.06214,-0.246793 -0.09314,-0.497329 -0.09314,-0.752126 0,-0.438322 0.130891,-0.856351 0.395018,-1.257649 0.267302,-0.404314 0.600582,-0.712844 1.002735,-0.92473 0.435861,-0.229648 0.796199,-0.270799 1.077254,-0.118765 0.28661,0.154702 0.431243,0.430295 0.431243,0.825345 0,0.23741 -0.04689,0.477631 -0.140392,0.719937 -0.09313,0.243232 -0.193251,0.438062 -0.300275,0.584708 -0.154419,0.207837 -0.343944,0.407782 -0.567707,0.599466 -0.154739,0.131128 -0.332615,0.243019 -0.533078,0.335718 0,0 -0.258971,0.119755 -0.258971,0.119755 0,0 0,0 0,0 m 0.614999,-0.91478 c 0.179093,-0.172637 0.313307,-0.351441 0.401844,-0.535927 0.09095,-0.186205 0.136557,-0.377921 0.136557,-0.574599 0,-0.194805 -0.04561,-0.34047 -0.136557,-0.436709 -0.08854,-0.09691 -0.222751,-0.143878 -0.401844,-0.141206 0,0 0,1.688441 0,1.688441 0,0 0,0 0,0" />
    <path
       inkscape:connector-curvature="0"
       id="path6111-0"
       style="font-style:normal;font-variant:normal;font-weight:bold;font-stretch:normal;font-size:medium;line-height:125%;font-family:'Courier New';-inkscape-font-specification:'Courier New, Bold';text-align:start;letter-spacing:0px;word-spacing:0px;writing-mode:lr-tb;text-anchor:start;fill:#800080;fill-opacity:1;stroke:none;stroke-width:1px;stroke-linecap:butt;stroke-linejoin:miter;stroke-opacity:1"
       d="m 72.421873,80.874424 c 0,0 -0.633918,0.290478 -0.633918,0.290478 0,0 0,-0.871796 0,-0.871796 0,0 0.633918,-0.300094 0.633918,-0.300094 0,0 0,0.881412 0,0.881412 0,0 0,0 0,0 m -1.126636,0.615437 c 0,0 -1.92897,0.880545 -1.92897,0.880545 0,0 0,0.841901 0,0.841901 0,0.168836 -0.02562,0.299786 -0.07677,0.392718 -0.0493,0.09427 -0.114319,0.158825 -0.194934,0.193705 -0.07863,0.03402 -0.14312,0.02569 -0.193557,-0.02484 -0.04861,-0.04894 -0.07288,-0.15697 -0.07288,-0.324156 0,0 0,-2.362065 0,-2.362065 0,-0.167186 0.02427,-0.298816 0.07288,-0.395017 0.05044,-0.09497 0.115795,-0.162288 0.196182,-0.201923 0.07887,-0.03888 0.143005,-0.03522 0.192309,0.01113 0.05116,0.04785 0.07677,0.15623 0.07677,0.325066 0,0 0,0.841902 0,0.841902 0,0 1.352645,-0.634702 1.352645,-0.634702 0,0 0,-0.578567 0,-0.578567 0,-0.170648 0.02599,-0.305969 0.07803,-0.406102 0.054,-0.101227 0.123988,-0.17287 0.210074,-0.21488 0.08447,-0.04122 0.153166,-0.03823 0.205978,0.0091 0.0548,0.0489 0.08224,0.160754 0.08224,0.335507 0,0 0,1.31065 0,1.31065 0,0 0,0 0,0" />
  </g>
</svg>
